<?xml version="1.0" encoding="UTF-8"?><svg id="Layer_2" xmlns="http://www.w3.org/2000/svg" viewBox="0 0 1509.56 863.01"><defs><style>.cls-1{fill:#00a8c3;}</style></defs><g id="UNIVERSALV"><g><rect class="cls-1" x="2.65" y="32.83" width="196.35" height="7.59"/><rect class="cls-1" x="39.23" y="64.9" width="142.97" height="11.6"/><rect class="cls-1" x="227.34" y="91.93" width="398.65" height="6.66"/><rect class="cls-1" x="458.18" y="86.55" width="167.81" height="5.38"/><rect class="cls-1" x="300.64" y="67.9" width="157.54" height="18.65"/><rect class="cls-1" x="345.76" y="50.61" width="51.87" height="4.34"/><rect class="cls-1" x="782.04" y="34.24" width="597.61" height="4.15"/><rect class="cls-1" x="921.34" width="423.15" height="7.78"/><rect class="cls-1" x="865.87" y="21.4" width="127.2" height="5.64"/><rect class="cls-1" x="1013.86" y="19.38" width="495.7" height="5.39"/><rect class="cls-1" x="599.66" y="101.75" width="477.73" height="5.52"/><rect class="cls-1" x="1007.82" y="60.8" width="59.84" height="13.75"/><rect class="cls-1" x="908.96" y="77.32" width="73.82" height="7.15"/><rect class="cls-1" x="911.14" y="94.72" width="51.34" height="15.51"/><rect class="cls-1" x="806.73" y="73.97" width="72.06" height="10.75"/><rect class="cls-1" x="774.6" y="92.2" width="272.02" height="1.46"/><rect class="cls-1" x="1040.1" y="174.48" width="106" height="6.4"/><rect class="cls-1" x="1056.46" y="168.98" width="71.15" height="7.69"/><rect class="cls-1" x="1128.62" y="165.89" width="143.49" height="5.62"/><rect class="cls-1" x="1058.76" y="145.41" width="367.33" height="4.15"/><rect class="cls-1" x="1370.65" y="162.63" width="122.83" height="9.83"/><rect class="cls-1" x="1311.34" y="179.62" width="81.9" height="9.15"/><rect class="cls-1" x="1248.04" y="175.64" width="74.97" height="7.36"/><rect class="cls-1" x="1194.17" y="197.37" width="312.2" height="5.2"/><rect class="cls-1" x="1277.42" y="203.25" width="95.54" height="9.05"/><rect class="cls-1" x="772.09" y="246.87" width="578.76" height="5.54"/><rect class="cls-1" x="591.75" y="233.56" width="616.73" height="2.34"/><rect class="cls-1" x="599.11" y="153.78" width="245.37" height="20.29"/><rect class="cls-1" x="437.15" y="141.15" width="78.96" height="6.25"/><rect class="cls-1" x="446.68" y="112.83" width="147.15" height="4.78"/><rect class="cls-1" x="149.66" y="260.42" width="366.3" height="3.63"/><rect class="cls-1" x="348.52" y="236.08" width="29.88" height="44.06"/><rect class="cls-1" x="391.03" y="230.15" width="192.96" height="7.37"/><rect class="cls-1" x="614.24" y="245.09" width="90.14" height="5.09"/><rect class="cls-1" x="741.93" y="252.93" width="71.15" height="3.38"/><rect class="cls-1" x="812.26" y="272.73" width="20.42" height="5.02"/><rect class="cls-1" x="560.83" y="268.86" width="189.05" height="5.45"/><rect class="cls-1" x="309.62" y="289.19" width="290.36" height="3.74"/><rect class="cls-1" x="67.17" y="309.46" width="146.19" height="6.73"/><rect class="cls-1" x="61.4" y="445.39" width="205.51" height="8.31"/><rect class="cls-1" x="204.81" y="472.21" width="124.64" height="8.7"/><rect class="cls-1" x="147.4" y="487.38" width="105.2" height="2.71"/><rect class="cls-1" x="303.53" y="484.53" width="63.76" height="3.53"/><rect class="cls-1" x="372.65" y="455.75" width="157.58" height="6.05"/><rect class="cls-1" x="619.66" y="352.76" width="241.33" height="1.75"/><rect class="cls-1" x="759.07" y="415.68" width="221.36" height="7.13"/><rect class="cls-1" x="886.31" y="451.42" width="155.1" height="9.71"/><rect class="cls-1" x="870.21" y="438.24" width="298.06" height="2.78"/><rect class="cls-1" x="1107.5" y="426.48" width="160.05" height="4.23"/><rect class="cls-1" x="1063.74" y="394.34" width="153.28" height="6.63"/><rect class="cls-1" x="1315.29" y="407.71" width="87.67" height="4.93"/><rect class="cls-1" x="1260.77" y="422.84" width="93.33" height="14.66"/><rect class="cls-1" x="1302.62" y="441.55" width="51.59" height="10.05"/><rect class="cls-1" x="1109.21" y="497.54" width="146.02" height="6.3"/><rect class="cls-1" x="109.41" y="610.45" width="215.25" height="16.87"/><rect class="cls-1" x="163.78" y="596.86" width="74.42" height="1.73"/><rect class="cls-1" x="127.56" y="567.05" width="122.49" height="5.67"/><rect class="cls-1" x="222.81" y="586.04" width="118.11" height="5.7"/><rect class="cls-1" x="163.78" y="596.86" width="74.42" height="1.73"/><rect class="cls-1" x="60.13" y="609.87" width="42.59" height="5.78"/><rect class="cls-1" x="9" y="574.47" width="108.8" height="3.58"/><rect class="cls-1" x="1.23" y="554.18" width="695.28" height="3.95"/><rect class="cls-1" x="646.39" y="577.5" width="166.21" height="4.26"/><rect class="cls-1" x="477.74" y="689.14" width="298.55" height="13.14"/><rect class="cls-1" x="662.36" y="665.31" width="386.98" height="3.9"/><rect class="cls-1" x="682.39" y="605.94" width="94.39" height="12.16"/><rect class="cls-1" x="799.69" y="611.37" width="132.32" height="5.6"/><rect class="cls-1" x="1041.31" y="613.99" width="86.41" height="5.93"/><rect class="cls-1" x="825.6" y="717.23" width="119.25" height="11.16"/><rect class="cls-1" x="817.8" y="692.59" width="239.39" height="5.02"/><rect class="cls-1" x="1145.49" y="700.69" width="358.93" height="3.96"/><rect class="cls-1" x="1084.47" y="684.74" width="218.68" height="3.88"/><rect class="cls-1" x="1297.15" y="766.28" width="31.98" height="38.03"/><rect class="cls-1" x="1158.76" y="829.6" width="190.3" height="10.64"/><rect class="cls-1" x="980.38" y="804.66" width="135.69" height="17.6"/><rect class="cls-1" x="990.6" y="857.06" width="84.22" height="5.95"/><rect class="cls-1" x="817.72" y="836.45" width="198.99" height="2.93"/><rect class="cls-1" x="811.92" y="790.58" width="133.47" height="13.24"/><rect class="cls-1" x="627.49" y="835.64" width="149.84" height="8.75"/><rect class="cls-1" x="757.49" y="822.67" width="126.89" height="10.01"/><rect class="cls-1" x="814.51" y="843.72" width="206.61" height="2.59"/><rect class="cls-1" x="425.5" y="796.66" width="323.11" height="7.49"/><rect class="cls-1" x="660.45" y="771.35" width="88.47" height="11.57"/><rect class="cls-1" x="484.24" y="604.91" width="102.78" height="2.53"/><rect class="cls-1" x="6.02" y="691.47" width="166.23" height="7.54"/><rect class="cls-1" x="226" y="723.77" width="68.93" height="7.15"/><rect class="cls-1" y="765.86" width="138.91" height="8.83"/><rect class="cls-1" x="346.3" y="725.1" width="298.42" height="5.45"/><rect class="cls-1" x="34.19" y="651.88" width="306.08" height="4.41"/><rect class="cls-1" x="967.23" y="355.4" width="147.05" height="6.76"/><rect class="cls-1" x="980.57" y="276.15" width="380.14" height="2.46"/></g></g></svg>