<svg xmlns="http://www.w3.org/2000/svg" viewBox="0 0 1434.17 1332.97"><defs><style>.cls-1,.cls-10,.cls-11,.cls-12,.cls-13,.cls-14,.cls-15,.cls-16,.cls-17,.cls-18,.cls-19,.cls-2,.cls-20,.cls-21,.cls-22,.cls-23,.cls-24,.cls-25,.cls-26,.cls-27,.cls-28,.cls-29,.cls-3,.cls-30,.cls-31,.cls-4,.cls-5,.cls-6,.cls-7,.cls-8,.cls-9{fill:none;stroke:#ff9e18;stroke-miterlimit:10;}.cls-1{stroke-width:0.82px;}.cls-2{stroke-width:0.89px;}.cls-3{stroke-width:0.97px;}.cls-4{stroke-width:1.05px;}.cls-5{stroke-width:1.14px;}.cls-6{stroke-width:1.24px;}.cls-7{stroke-width:1.35px;}.cls-8{stroke-width:1.47px;}.cls-9{stroke-width:1.6px;}.cls-10{stroke-width:1.74px;}.cls-11{stroke-width:1.89px;}.cls-12{stroke-width:2.05px;}.cls-13{stroke-width:2.23px;}.cls-14{stroke-width:2.42px;}.cls-15{stroke-width:2.63px;}.cls-16{stroke-width:2.86px;}.cls-17{stroke-width:3.11px;}.cls-18{stroke-width:3.38px;}.cls-19{stroke-width:3.68px;}.cls-20{stroke-width:4px;}.cls-21{stroke-width:4.34px;}.cls-22{stroke-width:4.72px;}.cls-23{stroke-width:5.13px;}.cls-24{stroke-width:5.58px;}.cls-25{stroke-width:6.06px;}.cls-26{stroke-width:6.59px;}.cls-27{stroke-width:7.16px;}.cls-28{stroke-width:7.79px;}.cls-29{stroke-width:8.46px;}.cls-30{stroke-width:9.2px;}.cls-31{stroke-width:10px;}</style></defs><g id="Layer_2" data-name="Layer 2"><g id="Animation"><rect class="cls-1" x="662.87" y="608.12" width="108.44" height="116.73" transform="translate(-237.17 447.83) rotate(-30)"/><rect class="cls-2" x="658.15" y="603.04" width="117.87" height="126.88" transform="translate(-219.59 381.8) rotate(-26)"/><rect class="cls-3" x="653.03" y="597.52" width="128.12" height="137.92" transform="translate(-197.45 317.16) rotate(-22)"/><rect class="cls-4" x="647.46" y="591.53" width="139.26" height="149.91" transform="translate(-170.86 254.21) rotate(-18)"/><rect class="cls-5" x="641.4" y="585.01" width="151.37" height="162.95" transform="translate(-139.94 193.28) rotate(-14)"/><rect class="cls-6" x="634.82" y="577.92" width="164.53" height="177.12" transform="translate(-104.84 134.65) rotate(-10)"/><rect class="cls-7" x="627.67" y="570.22" width="178.84" height="192.52" transform="translate(-65.74 78.61) rotate(-6)"/><rect class="cls-8" x="619.89" y="561.85" width="194.39" height="209.26" transform="matrix(1, -0.03, 0.03, 1, -22.82, 25.43)"/><rect class="cls-9" x="603.36" y="560.84" width="227.45" height="211.29" transform="translate(25.98 1359.87) rotate(-88)"/><rect class="cls-10" x="593.47" y="551.65" width="247.23" height="229.66" transform="translate(-20.7 1309.97) rotate(-84)"/><rect class="cls-11" x="582.72" y="541.67" width="268.73" height="249.63" transform="translate(-63.79 1256.94) rotate(-80)"/><rect class="cls-12" x="571.04" y="530.81" width="292.1" height="271.34" transform="translate(-103.08 1201.03) rotate(-76)"/><rect class="cls-13" x="558.34" y="519.01" width="317.5" height="294.94" transform="translate(-138.37 1142.52) rotate(-72)"/><rect class="cls-14" x="544.53" y="506.19" width="345.11" height="320.58" transform="translate(-169.49 1081.68) rotate(-68)"/><rect class="cls-15" x="529.53" y="492.25" width="375.12" height="348.46" transform="translate(-196.29 1018.83) rotate(-64)"/><rect class="cls-16" x="513.22" y="477.1" width="407.74" height="378.76" transform="translate(-218.65 954.26) rotate(-60)"/><rect class="cls-17" x="495.49" y="460.63" width="443.19" height="411.7" transform="translate(-236.44 888.28) rotate(-56)"/><rect class="cls-18" x="476.22" y="442.73" width="481.73" height="447.5" transform="translate(-249.59 821.23) rotate(-52)"/><rect class="cls-19" x="455.28" y="423.28" width="523.62" height="486.41" transform="translate(-258.03 753.42) rotate(-48)"/><rect class="cls-20" x="432.51" y="402.13" width="569.15" height="528.71" transform="translate(-261.72 685.19) rotate(-44)"/><rect class="cls-21" x="407.76" y="379.14" width="618.64" height="574.68" transform="translate(-260.64 616.86) rotate(-40)"/><rect class="cls-22" x="380.87" y="354.16" width="672.44" height="624.65" transform="translate(-254.8 548.78) rotate(-36)"/><rect class="cls-23" x="351.63" y="327" width="730.91" height="678.97" transform="translate(-244.22 481.27) rotate(-32)"/><rect class="cls-24" x="319.85" y="297.48" width="794.47" height="738.01" transform="translate(-228.96 414.67) rotate(-28)"/><rect class="cls-25" x="285.31" y="265.39" width="863.55" height="802.19" transform="translate(-209.09 349.29) rotate(-24)"/><rect class="cls-26" x="247.76" y="230.51" width="938.65" height="871.94" transform="matrix(0.94, -0.34, 0.34, 0.94, -184.7, 285.45)"/><rect class="cls-27" x="206.95" y="192.6" width="1020.27" height="947.76" transform="translate(-155.93 223.47) rotate(-16)"/><rect class="cls-28" x="162.59" y="151.39" width="1108.99" height="1030.18" transform="translate(-122.9 163.65) rotate(-12)"/><rect class="cls-29" x="114.38" y="106.6" width="1205.42" height="1119.76" transform="translate(-85.78 106.29) rotate(-8)"/><rect class="cls-30" x="61.97" y="57.92" width="1310.24" height="1217.13" transform="translate(-44.74 51.64) rotate(-4)"/><rect class="cls-31" x="5" y="5" width="1424.17" height="1322.97"/></g></g></svg>