<svg xmlns="http://www.w3.org/2000/svg" viewBox="0 0 1430.69 1327.2"><defs><style>.cls-1{fill:#ff85bb;}</style></defs><g id="Layer_2" data-name="Layer 2"><g id="Creative_Digital_Design" data-name="Creative Digital Design"><path class="cls-1" d="M1430.69,1189.93v46.6c-31.69,1.67-62.69,7.69-91.86,20.46-37.43,16.38-65.77,41-87.92,70.21h-43.49c22.46-45.36,53.8-85.23,101-110.48C1346.11,1196.57,1388,1189.6,1430.69,1189.93Z"/><path class="cls-1" d="M1430.69,1031.32v41c-71.91-10.27-139.74-2.07-196.88,50.11-48.68,44.47-66.25,112.44-83.06,170.15q-5,17.25-9.64,34.62h-20.17q5.52-23.64,11.56-47.21c15.73-61.07,31.64-136.63,75-188.35C1265,1023.25,1344.71,1016,1430.69,1031.32Z"/><path class="cls-1" d="M1346.71,877.62c28.54,3.26,56.45,9.42,84,17.26v39.3c-117.19-29.12-225.92-25.56-280.12,103.17-38.88,92.33-57.76,191.26-74.55,289.85h-13.25c17-102.32,34.36-205,69.29-303.07,16-45,34.84-94.54,80.78-123.06C1251.91,876.84,1300.21,872.32,1346.71,877.62Z"/><path class="cls-1" d="M1430.69,779.56v30c-53-18-107.13-31.42-160.57-29.08C1142.55,786.06,1112.43,918.28,1091,1006c-25.92,106.08-40.4,213.89-58.29,321.21h-10.22c18.46-107.5,32.09-215.69,55.24-322.5,18.77-86.67,42.06-236,165.41-255C1303.5,740.42,1368.5,757.54,1430.69,779.56Z"/><path class="cls-1" d="M1430.69,681.83v26.29c-78-27.3-180.66-61.94-250.31-20.37-45.72,27.29-68.93,81.51-85.05,125.58-23.71,64.8-35.3,133.1-46.8,200.19-17.83,104-29.78,209.69-50.54,313.68h-9c22-101.38,33.5-205.11,50-306.43,11.23-69,22.57-138.51,43.86-205.8,15.35-48.5,34.72-105.53,76.65-142.21C1230,611.12,1351.32,656.6,1430.69,681.83Z"/><path class="cls-1" d="M1317.9,563c38,7.42,75.43,16.82,112.79,26.39v25.3c-27.09-7.45-54.16-14.79-81.41-21.38-43.8-10.58-93.72-22-139.52-14.38-48.4,8.07-75.58,41.09-96.13,78-65.52,117.73-76.09,261.85-96.44,389.47-14.5,90.93-25.51,188.63-52.24,280.87H954.57c29.51-88.07,40.75-183.89,54.88-269.61C1031.26,925.3,1042,782.66,1099,657.25c16.69-36.75,41.64-81.84,86.94-97C1227,546.52,1276.64,554.89,1317.9,563Z"/><path class="cls-1" d="M1430.69,501.49v21.12c-64.07-12.78-127.65-24.45-189.16-25.68-114.43-2.29-150.46,90.11-174.59,173.32-39.34,135.53-51.83,276.44-78.62,414-16.13,82.86-33.75,168.62-77,242.92h-21A240.51,240.51,0,0,0,911,1296.78c36.17-63.62,53.28-135.18,68.33-204.43,29.81-137.27,42.9-277.26,77.29-413.77,19.51-77.38,48.62-193,158.17-201.56C1285.71,471.47,1358.84,487,1430.69,501.49Z"/><path class="cls-1" d="M1407.42,416.17q11.61.94,23.27,1.78v23.82c-83.62-9.85-202-39.16-277.22-.74-90.36,46.17-104.88,184.89-120,263.77C1007.83,838,993.24,973.72,952,1104.28,934,1161.13,911,1221,863.89,1264.91c-22.91,21.34-47.06,41.79-71.09,62.29H751.18q46.13-40.21,92-80.61c47.58-41.9,75.13-85.9,96.3-142.1,47.28-125.51,62.47-259,86-389,15.64-86.41,26-218.35,107.92-280.82C1202.09,382.41,1326,409.67,1407.42,416.17Z"/><path class="cls-1" d="M1430.69,328.54V354c-36.72.36-73.51.05-110.31,0-88.91-.14-180.79.87-230.13,75.31-60,90.5-66.25,211.59-84.34,312.43C985.08,857.85,967.73,986.93,900.42,1091c-27.61,42.67-72.11,73-111.24,107.42-33.78,29.71-66.75,60.11-100.55,89.8q-22.23,19.53-44.56,39H603q32.6-28.46,65-57.1c33.66-29.81,66.89-60,100.53-89.81,37-32.74,82.77-63.55,113.87-100.59C959,988.41,977.84,858.76,998.33,750.25c19.74-104.56,26.25-222.48,78.35-319.87,42-78.48,119.69-92.94,212-97C1336.09,331.29,1383.47,330.38,1430.69,328.54Z"/><path class="cls-1" d="M1430.69,233.31V260.2c-73.31,7.7-147.1,13.19-218.51,28.59-93.34,20.12-138.44,70.27-164.53,149.07C982,636.08,1011.09,881,829.09,1034.23c-113.58,95.62-223.87,194.7-334.8,293h-40q177.52-155,354.23-310.77c33.84-29.85,70-56.08,94.15-93,31.31-47.87,49.8-101.91,64.72-155.15,30.24-107.78,40.36-219,71.07-326.62,22.09-77.41,57.25-138.36,147.27-166.35C1263.38,251.11,1348.1,244,1430.69,233.31Z"/><path class="cls-1" d="M1430.69,129.62v30.3c-4,.92-7.9,1.83-11.86,2.72-97.31,22-207.39,34.81-292.41,84.93-75.07,44.29-92.7,131.12-108.33,203.44-22.69,104.93-36.53,212.84-79.85,313.4C900.46,852.1,825.81,907,756.2,975.2c-128.11,125.57-271.75,234.86-409,352h-41.5c143.4-123.36,299-231.8,431-365.58,64.17-65,147-124.32,188.08-203.26,49.75-95.57,65.31-202.26,86.4-304.62,14.93-72.36,28.37-164.67,96.64-215.7,75-56.09,184-73.61,276.16-96.51Q1407.34,135.73,1430.69,129.62Z"/><path class="cls-1" d="M1430.69,11.42V45.5c-44.6,14.72-89.3,29.22-133.76,44.14-81.75,27.44-179.73,60.38-228.55,128.28-49.85,69.3-57.69,160.11-74.64,238.6C973.78,549,951.45,654,882,729.39c-63.13,68.53-131.18,134.39-194.69,203.06C623,1002,553.06,1066.22,472.62,1121.78c-80.17,55.37-160.47,106.55-233.3,169.65q-20.61,17.88-41.24,35.77H155.65q31.44-26.85,63.14-53.49c73.27-61.55,153.71-110.77,234.74-163.71C535.27,1056.58,605.58,993.35,669,923.7,733.31,853,792.36,779.65,862.15,712.84c74.43-71.27,103.08-165,124.67-257.44,18.81-80.49,26-169.87,69.45-244.11,41.48-70.85,129.14-109.77,209.27-140.44C1320.06,50,1375.33,30.63,1430.69,11.42Z"/><path class="cls-1" d="M1176.18,0h60.75Q1213.61,11.51,1191,24.11c-76,42.49-132.24,95.07-159.93,170.71C1001.17,276.46,993,363,966.41,445.5c-13.94,43.35-31.91,87-59.6,125.26-27.13,37.48-65.95,67.4-96.5,102.73C744.66,749.4,689.85,831.91,622.63,906.84,561,975.48,489.47,1034.77,404.07,1080.48c-83.61,44.75-164.13,92.75-238.26,149.27-41.34,31.5-81.73,64.12-121.51,97.45H6.94c44.74-39.5,90.2-78.42,138.56-114.14,73.47-54.29,155.39-103.36,239.6-143.91,86.82-41.79,159-98.92,220.24-166.68,68.67-76.05,123.15-160.48,186-240,30.07-38,66.37-69.82,98.6-106,31-34.74,51.56-76.23,67.19-117.76,30.77-81.75,40-167.75,66.13-250.43,24-76.14,69.89-133.91,142.42-181.54C1169.18,4.45,1172.68,2.21,1176.18,0Z"/><path class="cls-1" d="M1055.59,0h22.17c-89.24,123.06-73.65,282.76-150.16,412.44-23.29,39.47-57.85,67.4-88.48,101.88-35.94,40.47-65.43,85.27-94.5,129.59C688.11,730,634.37,818.73,561.4,895.42,437.35,1025.77,242,1066.24,92.48,1168.9,60.27,1191,29.69,1215,0,1239.89v-35c23.19-18.67,47.06-36.63,72-53.4,148.64-100,347.93-130.91,472.82-257.49,74.89-75.93,128.38-165.88,182.76-253.45,29.07-46.83,58-94.13,92.38-138.23,28.47-36.51,67-65.83,93.64-103.28C999.45,278.31,986,125.09,1055.59,0Z"/><path class="cls-1" d="M1009.63,0h9.5c-14,45.47-22.55,92.52-34.25,138.25C963.69,221,932.46,292.9,867.15,356.62c-161.41,157.5-193.2,390.84-371,540C433.18,949.36,352.67,975.2,271.18,998.8c-88.1,25.51-172.08,53.91-247.59,102.13q-12,7.66-23.59,15.72v-32.54c.94-.63,1.88-1.22,2.82-1.83,75.45-48.17,159.37-75.77,248.71-97.54,81.13-19.77,163.51-40,228-89.56,188.83-145,218.82-385.28,367.82-554,27.43-31.07,59-56.45,80.62-91.41,23.79-38.44,38.73-80.61,50.62-122.85C990.4,85,998.47,42.1,1009.63,0Z"/><path class="cls-1" d="M978.3,0h9.5c-8.08,31.45-16.67,62.78-28.69,93.3-34.32,87.14-112,143.26-159.93,223.43C733.85,426,690.65,544.29,630.93,655.85c-45.54,85-101,180.77-195.26,232.41C365,927,278.88,929.94,198.78,941.8,127.51,952.34,61.07,971.29,0,1002.36V971.8c54.92-25.47,114.35-41.25,178-48.94,79.65-9.64,167.15-6.43,240.32-39.38,97-43.65,153.58-138.74,198-221.09C678,548.13,720.89,427,781.93,312.55c23.81-44.65,50.27-86.72,87.7-123.67,34.3-33.86,60.89-67.58,80.22-109.94C961.59,53.22,970.45,26.74,978.3,0Z"/><path class="cls-1" d="M920.25,0h21.51A366.47,366.47,0,0,1,919,38.63c-28.57,42.17-71.65,73.62-99.74,116.25-32.93,50-56.58,104.57-79.33,158.47-51.87,122.8-93.52,250.24-161.33,367.43-44,76-104.67,162.6-208.13,179.81-81.64,13.56-165.93.47-248.29,6.83A469.7,469.7,0,0,0,0,893.14V863.05a432.28,432.28,0,0,1,100.22-19c83.6-6,167.27,9.9,250.69,3,106-8.86,166.49-82.6,213.11-159.45,70.71-116.6,111.73-245.81,160.71-370,22.61-57.38,45.72-115.19,76.59-169.67,27.41-48.41,68-81.86,102.59-125.38Q912.64,11.49,920.25,0Z"/><path class="cls-1" d="M811.75,0H837.4C757.7,96.76,725.75,224.34,687,335.81c-42.76,123-81.85,255.45-162,364.88-25.53,34.9-58.26,73.88-103.4,90.5-38.24,14.07-84.26,11.87-124.55,8.26-85-7.63-169-28.42-255.09-21a342.7,342.7,0,0,0-42,6.25v-30.1q9.45-1.57,19.29-2.62c86.58-9.13,171.37,12.83,256,24.77,41.78,5.88,85.25,10.12,127,1.91,47.28-9.28,80-42.39,107-75.68C593.83,598.9,632.23,465.35,673,344.84,711.52,230.79,742.28,104.69,811.75,0Z"/><path class="cls-1" d="M748.16,0h15.35c-54.09,118.67-85.4,245.41-125.68,367.62C602.14,475.9,564,617.74,465.7,698.11c-66.27,54.18-164.09,29.38-242.07,11C151.1,692.06,75.53,671.79,0,676.61V646.4c67.61-2,135.58,15.85,200.07,32.65,73.81,19.23,175.73,52.9,247.54,11.34,44.68-25.86,74.93-78.73,97-119.53C578.07,508.8,602,442.74,623.93,377,665.72,251.78,697.28,122.91,748.16,0Z"/><path class="cls-1" d="M696.92,0h13.94c-45.62,130.72-78.77,264.59-124.71,395.24-28.95,82.37-76,231.13-192,249.24C307.73,658,216.41,615.86,136.76,592.83,92.52,580.05,46.12,569.21,0,567V536.1c37.54,2.58,75.29,10.81,111.87,21.25C194.32,580.87,282.72,624.75,372,620c120.77-6.38,167.79-138.91,198.68-221.93C619.42,267.12,652.82,132.22,696.92,0Z"/><path class="cls-1" d="M644.68,0h15C619,131.71,585.23,266.35,527.16,392.92c-39.93,87-96.42,166.84-216.71,148.31-92-14.2-174.41-59-264.33-80A397.59,397.59,0,0,0,0,453.12V420.29q10.17,1.41,20.75,3.49c91.86,18.09,173.53,62.65,264.83,82,114.93,24.33,178.9-32.9,223.52-120.42C571.46,263,605.2,129.6,644.68,0Z"/><path class="cls-1" d="M583.81,0h18.67C566.88,118.55,533.33,247.49,458,349,346.63,498.79,153.23,365.18,0,334V300c148.44,30.72,315,147.3,436.31,26.64,40.77-40.53,62.24-97.68,82.87-147.55C543.53,120.22,564,60.15,583.81,0Z"/><path class="cls-1" d="M508.24,0h24c-30.86,92.21-70.39,196.93-157.73,246.56C252.75,315.76,126.39,231.87,0,206.83V170.15c116.11,22.58,234.06,93.18,349.41,40.2C435.23,171,477.06,83,508.24,0Z"/><path class="cls-1" d="M375.28,0H425c-33.19,48.64-77.41,89.61-143.28,106.33-86,21.84-175.37-7.41-258.87-24.1Q11.17,79.91,0,78.09V41.16C83.68,53.54,169.71,81,255.15,63.86,305.05,53.85,343.89,30.44,375.28,0Z"/></g></g></svg>