<svg xmlns="http://www.w3.org/2000/svg" viewBox="0 0 1190.55 841.89"><defs><style>.cls-1{fill:#231f20;}.cls-2{fill:#291021;}.cls-3{fill:#220e1c;}.cls-4{fill:#ac3285;}.cls-5{fill:#b85e98;}.cls-6{fill:#c682ad;}</style></defs><g id="CDD"><rect class="cls-1" x="-150.08" y="-15.65" width="1519.33" height="872.97"/><rect class="cls-2" x="-146.56" y="79.56" width="701.38" height="162.2"/><rect class="cls-2" x="722.16" y="299.64" width="647.9" height="122.74"/><rect class="cls-2" x="754.52" y="491.63" width="613.86" height="92.65"/><rect class="cls-2" x="640.02" y="446.53" width="499.82" height="84.49"/><rect class="cls-3" x="-139.17" y="608.28" width="616.41" height="97.58"/><rect class="cls-3" x="315.88" y="781.98" width="575.11" height="72.73"/><rect class="cls-2" x="142.91" y="798.62" width="209.62" height="55.48"/><rect class="cls-3" x="1103.97" y="422.38" width="265.29" height="80.89"/><rect class="cls-2" x="-143.44" y="299.64" width="865.6" height="187.64"/><rect class="cls-3" x="-64.3" y="210.83" width="831.52" height="113.79"/><rect class="cls-3" x="359.22" y="-13.38" width="865.26" height="109.11"/><rect class="cls-2" x="382.85" y="73.36" width="328.45" height="73.9"/><rect class="cls-2" x="569.5" y="118.28" width="440.76" height="116.51"/><rect class="cls-3" x="514.12" y="671.6" width="855.73" height="104.22"/><rect class="cls-2" x="717.71" y="741.76" width="652.48" height="115.41"/><rect class="cls-4" x="51.66" y="745.84" width="403.61" height="22.16"/><rect class="cls-4" x="162.11" y="688.41" width="154.28" height="11.9"/><rect class="cls-4" x="146.68" y="717.2" width="54.3" height="2.71"/><rect class="cls-4" x="192.65" y="610.49" width="48.79" height="2.05"/><rect class="cls-4" x="217.48" y="474.23" width="121.73" height="7.94"/><rect class="cls-4" x="158.81" y="450.79" width="81.66" height="5.99"/><rect class="cls-4" x="197.74" y="459.91" width="56.68" height="8.23"/><rect class="cls-4" x="-64.5" y="593.12" width="78.4" height="9.16"/><rect class="cls-4" x="495.29" y="777.15" width="85.19" height="10.6"/><rect class="cls-4" x="470.26" y="589.75" width="67.36" height="10.79"/><rect class="cls-4" x="413.28" y="598.84" width="107.11" height="4.73"/><rect class="cls-4" x="668.68" y="633.23" width="79.77" height="9.95"/><rect class="cls-4" x="698.77" y="640.63" width="79.77" height="4.97"/><rect class="cls-4" x="795.6" y="598.61" width="161.38" height="4.97"/><rect class="cls-4" x="843.95" y="699.78" width="79.53" height="5.67"/><rect class="cls-4" x="919.79" y="663.69" width="52.7" height="5.39"/><rect class="cls-4" x="930.98" y="588.5" width="40.32" height="3.72"/><rect class="cls-4" x="1021.81" y="598.99" width="53.3" height="5.14"/><rect class="cls-4" x="718.35" y="782.6" width="74.02" height="2.73"/><rect class="cls-4" x="795.33" y="771.24" width="28.15" height="10.91"/><rect class="cls-4" x="823.62" y="776.71" width="50.4" height="19.93"/><rect class="cls-4" x="811.86" y="791" width="14.04" height="2.93"/><rect class="cls-4" x="914.52" y="760.15" width="31.88" height="5.85"/><rect class="cls-4" x="930.49" y="774.07" width="28.15" height="5.45"/><rect class="cls-4" x="-37.25" y="400.32" width="96.83" height="8.22"/><rect class="cls-4" x="-149.5" y="388.43" width="403.58" height="12.18"/><rect class="cls-4" x="287.6" y="362.4" width="124.6" height="3.75"/><rect class="cls-4" x="311.25" y="430.4" width="208.39" height="6.74"/><rect class="cls-4" x="593.39" y="407.13" width="54.25" height="4.62"/><rect class="cls-4" x="568.63" y="451.04" width="147.45" height="5.46"/><rect class="cls-4" x="889.08" y="477.65" width="188.63" height="4.03"/><rect class="cls-4" x="880.85" y="738.74" width="425.5" height="7.88"/><rect class="cls-4" x="866.22" y="290.09" width="13.87" height="19.94"/><rect class="cls-4" x="780.91" y="249.13" width="90.94" height="14.98"/><rect class="cls-4" x="803.97" y="243.88" width="88.5" height="6.57"/><rect class="cls-4" x="899.74" y="198.83" width="68.31" height="10.18"/><rect class="cls-4" x="838.45" y="156.76" width="24.6" height="6.01"/><rect class="cls-4" x="866.13" y="151.48" width="53.4" height="7.61"/><rect class="cls-4" x="874.39" y="142.64" width="65.56" height="8.47"/><rect class="cls-4" x="985.01" y="170.49" width="17.13" height="14.89"/><rect class="cls-4" x="961.6" y="191.45" width="47.26" height="7.68"/><rect class="cls-4" x="967.21" y="200.18" width="244.49" height="4.69"/><rect class="cls-4" x="1017.93" y="185.49" width="36.52" height="2.44"/><rect class="cls-4" x="1073.1" y="147.67" width="183.66" height="3.57"/><rect class="cls-4" x="866.25" y="69.02" width="30.85" height="11.03"/><rect class="cls-4" x="472.53" y="77.65" width="159.94" height="8.73"/><rect class="cls-4" x="294.18" y="60.46" width="79.43" height="5.62"/><rect class="cls-4" x="203.97" y="94.99" width="93.51" height="17.3"/><rect class="cls-4" x="11.34" y="72.14" width="187.47" height="4.85"/><rect class="cls-4" x="70.9" y="207.82" width="90.24" height="17.97"/><rect class="cls-4" x="350.59" y="252.88" width="51.05" height="8.04"/><rect class="cls-4" x="311.15" y="262.35" width="87.05" height="13.43"/><rect class="cls-4" x="427.61" y="252.32" width="27.21" height="5.17"/><rect class="cls-4" x="438.48" y="264.61" width="34.45" height="5.1"/><rect class="cls-4" x="559.84" y="236.24" width="32.12" height="5.03"/><rect class="cls-5" x="-150.79" y="8.58" width="163.62" height="3.7"/><rect class="cls-5" x="-28.76" y="85.22" width="462.14" height="7.02"/><rect class="cls-5" x="840.65" y="193.06" width="309.54" height="8.13"/><rect class="cls-5" x="748.6" y="125.97" width="401.69" height="3.8"/><rect class="cls-5" x="-96.24" y="159.19" width="535.34" height="6.7"/><rect class="cls-5" x="444.14" y="187.02" width="361.51" height="4.7"/><rect class="cls-5" x="783.45" y="161.76" width="77.39" height="5.95"/><rect class="cls-5" x="863.64" y="217.35" width="131.13" height="7.19"/><rect class="cls-5" x="1061.54" y="223.45" width="308.53" height="3.05"/><rect class="cls-5" x="531.29" y="298.35" width="838.51" height="6.09"/><rect class="cls-5" x="560.2" y="248.86" width="32.62" height="7.9"/><rect class="cls-5" x="572.37" y="238.54" width="64.28" height="4.54"/><rect class="cls-5" x="-151.01" y="172.27" width="787.61" height="5.24"/><rect class="cls-5" x="239.38" y="35.7" width="156.29" height="7.77"/><rect class="cls-5" x="340.32" y="40.52" width="189.81" height="6.32"/><rect class="cls-5" x="63.16" y="3.41" width="537.9" height="3.9"/><rect class="cls-5" x="-142.07" y="342.05" width="626.95" height="4.35"/><rect class="cls-5" x="-10.47" y="352.96" width="607.19" height="5.48"/><rect class="cls-5" x="252.38" y="321.87" width="205.63" height="6.44"/><rect class="cls-5" x="182.02" y="301.67" width="197.72" height="6.38"/><rect class="cls-5" x="-149.46" y="277.82" width="318.44" height="4.61"/><rect class="cls-5" x="1065.17" y="317.25" width="165.09" height="6.14"/><rect class="cls-5" x="960.46" y="334.22" width="248.17" height="3.78"/><rect class="cls-5" x="842.98" y="359" width="357.91" height="6.55"/><rect class="cls-5" x="1094.22" y="375.59" width="102.88" height="6.18"/><rect class="cls-5" x="1139.98" y="412.84" width="101.88" height="4.2"/><rect class="cls-5" x="763.21" y="410.63" width="198.8" height="5.48"/><rect class="cls-5" x="555.43" y="460.59" width="612.64" height="7.42"/><rect class="cls-5" x="1034.97" y="454.14" width="335.26" height="6.47"/><rect class="cls-5" x="929.11" y="435.3" width="113.63" height="11.7"/><rect class="cls-5" x="-51.34" y="505.96" width="621.93" height="6.49"/><rect class="cls-5" x="-85.36" y="451.51" width="256.07" height="5.81"/><rect class="cls-5" x="233.03" y="455.02" width="70.24" height="4.43"/><rect class="cls-5" x="-64.21" y="775.89" width="638.74" height="6.61"/><rect class="cls-5" x="-12.23" y="718.31" width="73.13" height="5.47"/><rect class="cls-5" x="138.86" y="690.62" width="58.3" height="5.37"/><rect class="cls-5" x="309.92" y="694.75" width="228.47" height="6.25"/><rect class="cls-5" x="88.52" y="564.86" width="405.37" height="7.89"/><rect class="cls-5" x="282.03" y="530.8" width="143.46" height="10.82"/><rect class="cls-5" x="-11.08" y="599.65" width="207.58" height="10.41"/><rect class="cls-5" x="142.22" y="613.89" width="139.5" height="10.85"/><rect class="cls-5" x="230.19" y="605.97" width="322.34" height="3.33"/><rect class="cls-5" x="520.38" y="596.96" width="46.91" height="6.61"/><rect class="cls-5" x="-60.88" y="820.58" width="336.11" height="12.33"/><rect class="cls-5" x="-107.4" y="822.12" width="715.89" height="4.21"/><rect class="cls-5" x="504.58" y="806" width="825.63" height="5.99"/><rect class="cls-5" x="713.3" y="822.34" width="92.01" height="7.24"/><rect class="cls-5" x="792.38" y="785.34" width="19.48" height="5.66"/><rect class="cls-5" x="781.12" y="763.07" width="196.75" height="3.41"/><rect class="cls-5" x="984.91" y="770.57" width="50.38" height="7.29"/><rect class="cls-5" x="619.2" y="560.47" width="570.55" height="4.01"/><rect class="cls-5" x="567.14" y="546.58" width="240.47" height="4.37"/><rect class="cls-5" x="1090.13" y="593.73" width="267.99" height="6.21"/><rect class="cls-5" x="938.15" y="569.36" width="229.31" height="10.56"/><rect class="cls-5" x="910.13" y="638.84" width="459.5" height="3.8"/><rect class="cls-5" x="1131.33" y="655.58" width="111.07" height="3.27"/><rect class="cls-5" x="983.65" y="661.74" width="385.12" height="2.3"/><rect class="cls-5" x="645.71" y="696.22" width="359.59" height="6.68"/><rect class="cls-5" x="200.6" y="647.05" width="490.57" height="2.55"/><rect class="cls-6" x="-148.82" y="21.78" width="198.28" height="7.66"/><rect class="cls-6" x="-111.88" y="54.16" width="144.38" height="11.71"/><rect class="cls-6" x="78.09" y="81.46" width="402.58" height="6.73"/><rect class="cls-6" x="311.2" y="76.03" width="169.47" height="5.43"/><rect class="cls-6" x="152.11" y="57.19" width="159.1" height="18.83"/><rect class="cls-6" x="197.67" y="39.73" width="52.38" height="4.38"/><rect class="cls-6" x="638.25" y="23.2" width="603.5" height="4.19"/><rect class="cls-6" x="722.92" y="10.24" width="128.46" height="5.69"/><rect class="cls-6" x="872.36" y="8.2" width="496.77" height="5.44"/><rect class="cls-6" x="454.08" y="91.38" width="482.44" height="5.57"/><rect class="cls-6" x="866.26" y="50.02" width="60.43" height="13.89"/><rect class="cls-6" x="766.43" y="66.71" width="74.55" height="7.22"/><rect class="cls-6" x="768.63" y="84.28" width="51.85" height="15.66"/><rect class="cls-6" x="663.19" y="63.32" width="72.77" height="10.85"/><rect class="cls-6" x="630.74" y="81.74" width="274.71" height="1.48"/><rect class="cls-6" x="898.86" y="164.82" width="107.05" height="6.47"/><rect class="cls-6" x="915.38" y="159.26" width="71.86" height="7.76"/><rect class="cls-6" x="988.25" y="156.15" width="144.9" height="5.67"/><rect class="cls-6" x="917.71" y="135.47" width="370.95" height="4.19"/><rect class="cls-6" x="1172.78" y="170.02" width="82.71" height="9.24"/><rect class="cls-6" x="1108.85" y="166" width="75.7" height="7.44"/><rect class="cls-6" x="1054.45" y="187.94" width="315.28" height="5.25"/><rect class="cls-6" x="1138.52" y="193.88" width="96.49" height="9.14"/><rect class="cls-6" x="628.21" y="237.92" width="584.46" height="5.6"/><rect class="cls-6" x="446.09" y="224.49" width="622.81" height="2.37"/><rect class="cls-6" x="453.53" y="143.92" width="247.79" height="20.49"/><rect class="cls-6" x="289.96" y="131.17" width="79.74" height="6.31"/><rect class="cls-6" x="299.59" y="102.57" width="148.6" height="4.82"/><rect class="cls-6" x="-0.37" y="251.61" width="369.91" height="3.67"/><rect class="cls-6" x="200.46" y="227.03" width="30.18" height="44.49"/><rect class="cls-6" x="243.39" y="221.04" width="194.86" height="7.44"/><rect class="cls-6" x="468.81" y="236.13" width="91.03" height="5.14"/><rect class="cls-6" x="597.75" y="244.05" width="71.85" height="3.41"/><rect class="cls-6" x="668.77" y="264.04" width="20.62" height="5.07"/><rect class="cls-6" x="414.87" y="260.13" width="190.91" height="5.5"/><rect class="cls-6" x="161.17" y="280.67" width="293.22" height="3.78"/><rect class="cls-6" x="-83.66" y="301.14" width="147.63" height="6.8"/><rect class="cls-6" x="-89.49" y="438.4" width="207.54" height="8.39"/><rect class="cls-6" x="55.34" y="465.49" width="125.87" height="8.78"/><rect class="cls-6" x="-2.64" y="480.81" width="106.24" height="2.74"/><rect class="cls-6" x="155.03" y="477.93" width="64.39" height="3.56"/><rect class="cls-6" x="224.83" y="448.86" width="159.14" height="6.11"/><rect class="cls-6" x="474.27" y="344.86" width="243.71" height="1.77"/><rect class="cls-6" x="615.06" y="408.4" width="223.54" height="7.2"/><rect class="cls-6" x="743.55" y="444.5" width="156.63" height="9.81"/><rect class="cls-6" x="727.3" y="431.18" width="301" height="2.8"/><rect class="cls-6" x="966.92" y="419.31" width="161.63" height="4.27"/><rect class="cls-6" x="922.73" y="386.85" width="154.8" height="6.7"/><rect class="cls-6" x="1176.76" y="400.35" width="88.53" height="4.98"/><rect class="cls-6" x="1121.71" y="415.64" width="94.25" height="14.8"/><rect class="cls-6" x="1163.97" y="434.53" width="52.1" height="10.15"/><rect class="cls-6" x="968.65" y="491.07" width="147.46" height="6.36"/><rect class="cls-6" x="-41.01" y="605.09" width="217.37" height="17.03"/><rect class="cls-6" x="13.89" y="591.37" width="75.15" height="1.75"/><rect class="cls-6" x="-22.68" y="561.27" width="123.69" height="5.73"/><rect class="cls-6" x="73.51" y="580.44" width="119.28" height="5.76"/><rect class="cls-6" x="13.89" y="591.37" width="75.15" height="1.75"/><rect class="cls-6" x="-150.26" y="548.27" width="702.14" height="3.99"/><rect class="cls-6" x="501.26" y="571.82" width="167.84" height="4.3"/><rect class="cls-6" x="330.96" y="684.56" width="301.5" height="13.27"/><rect class="cls-6" x="517.39" y="660.5" width="390.8" height="3.94"/><rect class="cls-6" x="537.62" y="600.54" width="95.32" height="12.28"/><rect class="cls-6" x="656.08" y="606.02" width="133.63" height="5.65"/><rect class="cls-6" x="900.09" y="608.67" width="87.26" height="5.99"/><rect class="cls-6" x="682.25" y="712.93" width="120.42" height="11.27"/><rect class="cls-6" x="674.37" y="688.04" width="241.75" height="5.07"/><rect class="cls-6" x="1005.29" y="696.22" width="362.47" height="4"/><rect class="cls-6" x="943.66" y="680.12" width="220.84" height="3.92"/><rect class="cls-6" x="1158.44" y="762.46" width="32.3" height="38.41"/><rect class="cls-6" x="1018.7" y="826.41" width="192.18" height="10.75"/><rect class="cls-6" x="838.56" y="801.22" width="137.03" height="17.77"/><rect class="cls-6" x="674.29" y="833.32" width="200.96" height="2.96"/><rect class="cls-6" x="668.43" y="787" width="134.79" height="13.37"/><rect class="cls-6" x="482.18" y="832.51" width="151.32" height="8.84"/><rect class="cls-6" x="613.46" y="819.41" width="128.14" height="10.11"/><rect class="cls-6" x="671.05" y="840.66" width="208.64" height="2.62"/><rect class="cls-6" x="278.2" y="793.14" width="326.3" height="7.57"/><rect class="cls-6" x="515.47" y="767.59" width="89.34" height="11.69"/><rect class="cls-6" x="337.52" y="599.5" width="103.8" height="2.56"/><rect class="cls-6" x="-145.42" y="686.92" width="167.87" height="7.61"/><rect class="cls-6" x="76.73" y="719.53" width="69.61" height="7.22"/><rect class="cls-6" x="198.22" y="720.88" width="301.36" height="5.5"/><rect class="cls-6" x="-116.97" y="646.93" width="309.1" height="4.45"/><rect class="cls-6" x="825.27" y="347.53" width="148.5" height="6.83"/><rect class="cls-6" x="838.75" y="267.5" width="383.89" height="2.48"/></g></svg>