<svg xmlns="http://www.w3.org/2000/svg" viewBox="0 0 1402.24 1313.62"><defs><style>.cls-1{fill:#009c86;}</style></defs><g id="Layer_2" data-name="Layer 2"><g id="Game_Design" data-name="Game Design"><path class="cls-1" d="M1402.24,1313.62H1384.7v-23.91h-35.53V1313H1331.4v-23.49h-53.25v-16.9H1384v-132.9h-52.34V1123h52.26v-82.67h-88.1v32.28h52.7V1089h-70.82v-48.82H1189.1v98.73h-17.71v-98.55h-88.48v49.05h-53.16v149.41H1012v-49.18h-89v49.27H905.49v-49.13h-35.4v82.28h88.12V1223H976v49.34h106.4v40.89h-17.2v-23.67H976.55v23.52H958.79v-23.32H869.86v23.36h-18V1139.63H692.38V990.42H657v98.84H604.06v99.87H497.2V1239H391v33.2H532.41V1223H656.77v49.18h35.29v-49.35h52.71v-33.48H639.34v-66.22h17.37v49.36H815.86v16.4H763.47v50.18H710.25v49.6H639.31v-49.08H550.55v73.48H532.71v-23.45H337.24v23.58H319.79v-90.11h17.1V1272h35.43v-82.34H284.39v49.12h-18v-99H71.6v48.91H53.84V1123H159.45v-82.9H107.08v-49.8H53.81V974h70.63v49h53.18v99.57H284.06v49.58h88.51v-49h17.68v99.08H478.9v-82.41H444.14v48.88H426.37V1122.9h52.79v-49.66h17.63v99h88.89V1073h52.94V974h71.27v48.86H762.7v16.92H710.45v82.71H851.6v-98.8h17.75v98.63h89v-49.14h17.48v66.35H870.05v32.71h141.33v-182H959V974h70.42v98.36h35.36V940.55H870.07v32.56H922.6V1023h53.3v16.77h-53v49.43h-17.5V990.59h-89V1089H745.92v-16.11h52.16V990.41H745.93V973.49H851.67V923.93h231v98.85h88.43V974h17.79v48.79h195.18V890.5H1331.5V873.83H1384V641.07h-52.58v-17H1384V491.59h-34.79v99.32h-53.5v49.75h-52.9V723.4h52.16v16.79h-52.36V889.77h-18v-149h-88.29v32.68h52.23v16.61H1136v49.8h-70.4v-16h52.35V723.76h106.22v-99.4h53.22V574.65h53.55V474.83h53V292h-35v99h-17.71V341.73h-88.74v49.2H1224.8V275.27h17.09v48.94h88.82V192.31H1224.83V142.77H1083V191.9H976.57v149h-71v-16h52.55V242.47H816.29v98.72H710.58v83.26H816.07v99.74h35.45V424.87H904.8v-33.2H745.85V374.74H851.78V275.27h70.66v16.29H870.12v82.75h141.41V324.88H1065V275.27h17.33v66.09h-52.54V391H923.27v50.07H870.15v83.18H975.93V640.51H905.67V624.26H958V541.65H816.46v99h-17.8V591.38h-106V574.56H797.92v-133H710.27V490.9H692.4V341.71H604.3V374.6h52.15V391H604V491.1H550.68V640.82H497.39v82.74H550V839.88H372.93V740.53h-53.6V691h-34.8v98.84H107.18V773.91H266V591.51H178.18v98.58h-18V541.47H107.28V524.63h52.24v-83H53.94V375.07H124v16.11H71.74V424.3H319.25V325.17h70.68v16.1h-52.3V474.11h88V425h17.52v65.85H319.43V441.59H178.19v132.7H284.24v99.4H372.5V574.84h17.44V690.68H337.46v32.81h53v99.7H532.15V740.73H479.66V641.25H444.12v132.1h52.5v16.43H426.36V624.11H532.28V474.86h53.24V341.72H479.83V225.25H532.3V142.76H390.75v98.77h-18V142.4H319.45V92.6h-88v82.31H266V126h18.16v49.07h52.66v99.35h88.9V175.77h70.82v16.15H444.19V374.54H550V441H497.25v149.8H426.4V574.54h52.44V541.7H337.15v98.84h-17.6V541.45H213.84V475h70v16.29H231.37v32.84H478.92V424.87h53.26v-33H390.79v49H373.08V375h52.34V291.76H319.54v-49.3H284.39v148.6H213.64V375h52.21V291.58H107.19V225.32h52.33V92.67H71.28V142H53.86V26.2h17V75.41H177.64V225h53v16.65H125v32.8H266.26V225.25h52.67V192.31H213.62V42.67H106.81V0h17.8V25.29H319.07V0h17.8V25.88H390v66H372.48V42.65h-141V75.92h106v49.31h88.39V0h17.8V125.12H532.2v-33H479.7v-16h71.08v98.64h88.39V75.5h52.74V42.7H603.53v99.22H585.74V42.11H479.82V25.41h52.87V0h17.8V25.24h89V0h17.8V25.91h52.31V92.34H656.89V192H603.8v99.06H533V274.67H585.6V192.55H550.18V242H497.46v82.29H639.11V225.12H692.3V125.38h53.25V75.49h53.16V25.42H905.16V0H923V75.87h52.83v16H904.93V42.73H816V92.45H763.13v50H710.4v83.12h52.52v65.6H692.86V274.46h52.08v-32H657.22v81.84h141.4V225.13h53.45V175.68h17.47v49.15h89.17v-49.6h106V142.79H922.56v48.9H905.14V142.74H816v48.89H745.69V175.24h53.08V125.4H852V76h17.86v49.09H1011.3V42.22H959V25.45h53V0h17.8V125.89h212.8v49.62h106.51v99h34.82V142h-52.31V76h17.5v49.21h34.79V42.07H1277.63V0h17.8V25.25h89V0h17.8Z"/><path class="cls-1" d="M17.8,0V174.9h89v-49h17.31v66H71.54V324.6h159v16.51H178V391H160.12V341.46H53.51v-149H18.15V474.31h106V491H71.62v83.35h52.93v149h88.62v-99H230.5v115.9H71.58v82.94H319v-49H337v99.25h53.18v66.32H372.91V890.39H319.42V840.61H231.2v99.06H213.25V890.38H107.18V873.92H212.72V840.36h-159V723.75h52.69V591.3H53.74V491.79H18.23V673.48h35V624.43H70.61v66.28H18.11V873.37H71v50h106.6V973h88.43V874h18v49.25h52.87v49.66h88.79V873.62H585.55V691H533V674h52.73v-49.5h17.82v98.67h88.54V674.27H709.7v49h35.09v-82H657v49.09H639.39V591.49H586.51V524.91h17.12v49.21h35.15V425h17.91v99.09h88.52V475h17.67v66.13H657.24v82.7H762.76V740.27H710.33v49.55H692.27v-49.2h-88V873.45h52.26v16.61H497.47v83.23H550v16.36H479.58v-99h-35.7v99.49H337.24v49.42H266.76v-16.39H319V940.64h-34.7v49.53h-53v82.21H372.58v-49.1H585.73v-83H532.92V923.63h159V840.47H639.54V774.18h17.12v49h88.46v-49h17.94v49.19H815.8v16.95H763.32v49.53h-18V840.67h-35v82.39h87.94V873.88h52.93v-83.3H799V674.17h52.6V575h70.95v16H870v82.49h194.62V641.15h-52.52V491.62H905.73V474.84h52.51v-50h106.81v-50h52.66V275.36h17.77V440.89H1118V391.76h-35V441.1H976.78v33.41h52.56v49.86h53.21v16.7H1029.9V623.7h105.54v16.93h-52v33.1h87.67v-99.2H1224v-33h-52.2V524.63h52.38V475.07h17.93v49h35V441.6h-88V491H1136v99.85h-70.32v-16h51.72V491.32h-52V474.66h105.49V192.6h-35v49.3H1029.58v49.35h-17.37V225.49h105.61V175.71h71.1v49.34h106.16v66.14H1278V242.43h-88.49V424.16h88V375.08h17.76v49.34h53.08V441h-52.57v100h-53.23V591h-53.33v99.59H1029.6v49.79h-53v49.5H958.92v-66h52.51V691.21H816.55v82h88.08V740.65H852.38V724.09h70v66.1H870.14v33.13h52.4v16.74H869.92v50H816.48v49.85H604.05v99.89H550.53v99.13H532.74v-98.51H443.86v48.52H426v-48.72H390.54v49.24H337.35V1139H319.41v-49.27h-106V990.18H160.18V940.47H53.59v-49.9H18.29V1023H70.94v49.55h53v16.54H53.64v-48.71H18.14v181.88H106.6v-49.31h17.77v49.32h35.31V1173.1h17.67v140H160.1v-73.36H18.3v32.75H124.1v16.45H17.91v24.36H.08v-8.84Q.08,656.26.08,8.12C.08,5.41,0,2.71,0,0Z"/><path class="cls-1" d="M1135.22,0V25.47h53.66V75.31h35.33V26.19H1242V75.42h53.07v66.4h-17.17V92.62H1171.54V42.54h-54.13V0Z"/><path class="cls-1" d="M1083.18,0V75.49h52.34V92h-70.14V0Z"/><path class="cls-1" d="M762.74,0V41.84h-17.8V0Z"/><path class="cls-1" d="M1188.94,824v99h53v50h88.62V940.42h-52.44V823.76h52.55V790.45H1278V773.78h52.68V691h-52.6V674.48h70.32V840.13H1296v83h52.43V989.6H1224.56V940.38h-53V890.77H1136V989.7H1118.1V890.3H1011.8V840.71H976.49V889.9H905.68V873.74h52.66V823.68h53.14V773.85h53.42V724.14h17.62V790h-52.38v83.18H1171V824Z"/><path class="cls-1" d="M1189.39,1189v83.21h34.89v-49.31h53.09V1173h70.91v65.78h-17.11V1189.7h-35.35V1239H1242.4v74.19h-17.85v-24H1171.4v-99.55h-88.16v49.14h-17.78V1122.87h52.35v-49.72h17.59v66.24h-52.1v32.82h140.87V1073.3h18v49.18H1295v16.91h-52.48V1189Z"/><path class="cls-1" d="M283.9,1289.28H231.1v23.77H213.84V1173H230.7v99.33h53.2Z"/><path class="cls-1" d="M745.75,1313v-40.47h52.52v-49.47h17.57v90.15H798.68v-23.67h-35.2V1313Z"/><path class="cls-1" d="M1135.55,1223v90.17h-16.94V1223Z"/><path class="cls-1" d="M603.42,1273v40.27H586.48V1273Z"/></g></g></svg>