<?xml version="1.0" encoding="UTF-8"?><svg id="Layer_2" xmlns="http://www.w3.org/2000/svg" viewBox="0 0 1504.55 790.42"><defs><style>.cls-1{fill:#b64790;}</style></defs><g id="UNIVERSALV"><g><rect class="cls-1" x="199.35" y="714.99" width="399.67" height="21.94"/><rect class="cls-1" x="308.73" y="658.13" width="152.78" height="11.79"/><rect class="cls-1" x="293.44" y="686.63" width="53.77" height="2.68"/><rect class="cls-1" x="338.97" y="580.96" width="48.32" height="2.03"/><rect class="cls-1" y="773.23" width="81.32" height="16.89"/><rect class="cls-1" x="33.39" y="689.75" width="73.82" height="5.25"/><rect class="cls-1" x="363.55" y="446.03" width="120.54" height="7.86"/><rect class="cls-1" x="305.46" y="422.83" width="80.86" height="5.93"/><rect class="cls-1" x="344.01" y="431.85" width="56.12" height="8.15"/><rect class="cls-1" x="84.32" y="563.76" width="77.63" height="9.07"/><rect class="cls-1" x="638.65" y="746" width="84.35" height="10.5"/><rect class="cls-1" x="613.86" y="560.43" width="66.7" height="10.68"/><rect class="cls-1" x="557.44" y="569.42" width="106.06" height="4.69"/><rect class="cls-1" x="810.35" y="603.48" width="78.99" height="9.85"/><rect class="cls-1" x="840.14" y="610.81" width="78.99" height="4.93"/><rect class="cls-1" x="936.02" y="569.2" width="159.8" height="4.92"/><rect class="cls-1" x="983.9" y="669.38" width="78.76" height="5.62"/><rect class="cls-1" x="1059.01" y="633.64" width="52.19" height="5.34"/><rect class="cls-1" x="1070.08" y="559.18" width="39.92" height="3.69"/><rect class="cls-1" x="1160.03" y="569.58" width="52.78" height="5.09"/><rect class="cls-1" x="859.54" y="751.4" width="73.3" height="2.71"/><rect class="cls-1" x="935.76" y="740.14" width="27.87" height="10.8"/><rect class="cls-1" x="963.77" y="745.56" width="49.9" height="19.74"/><rect class="cls-1" x="952.13" y="759.71" width="13.9" height="2.91"/><rect class="cls-1" x="1361.96" y="725.71" width="82.6" height="8.56"/><rect class="cls-1" x="1053.79" y="729.16" width="31.57" height="5.8"/><rect class="cls-1" x="1069.6" y="742.94" width="27.87" height="5.4"/><rect class="cls-1" x="111.31" y="372.85" width="95.89" height="8.14"/><rect class="cls-1" x=".16" y="361.07" width="399.64" height="12.06"/><rect class="cls-1" x="432.99" y="335.3" width="123.38" height="3.72"/><rect class="cls-1" x="456.41" y="402.63" width="206.36" height="6.67"/><rect class="cls-1" x="735.79" y="379.59" width="53.72" height="4.58"/><rect class="cls-1" x="711.27" y="423.07" width="146.01" height="5.41"/><rect class="cls-1" x="1028.59" y="449.42" width="186.79" height="3.99"/><rect class="cls-1" x="1364.18" y="361.65" width="140.37" height="10.87"/><rect class="cls-1" x="1360.06" y="773.4" width="144.33" height="17.02"/><rect class="cls-1" x="1020.44" y="707.96" width="421.34" height="7.8"/><rect class="cls-1" x="1393.03" y="633.7" width="59.66" height="2.55"/><rect class="cls-1" x="1005.95" y="263.69" width="13.74" height="19.75"/><rect class="cls-1" x="921.48" y="223.13" width="90.06" height="14.84"/><rect class="cls-1" x="944.31" y="217.93" width="87.64" height="6.5"/><rect class="cls-1" x="1039.15" y="173.32" width="67.65" height="10.08"/><rect class="cls-1" x="978.46" y="131.67" width="24.36" height="5.95"/><rect class="cls-1" x="1005.87" y="126.44" width="52.88" height="7.54"/><rect class="cls-1" x="1014.05" y="117.68" width="64.92" height="8.39"/><rect class="cls-1" x="1123.59" y="145.26" width="16.97" height="14.75"/><rect class="cls-1" x="1100.41" y="166.01" width="46.8" height="7.61"/><rect class="cls-1" x="1105.96" y="174.66" width="242.1" height="4.65"/><rect class="cls-1" x="1156.18" y="160.12" width="36.16" height="2.42"/><rect class="cls-1" x="1210.81" y="122.66" width="181.86" height="3.53"/><rect class="cls-1" x="1361.99" y="42.32" width="55.62" height="8.14"/><rect class="cls-1" x="1333.7" width="19.8" height="56.04"/><rect class="cls-1" x="1005.99" y="44.78" width="30.55" height="10.92"/><rect class="cls-1" x="616.11" y="53.32" width="158.37" height="8.65"/><rect class="cls-1" x="439.51" y="36.31" width="78.65" height="5.57"/><rect class="cls-1" x="350.18" y="70.5" width="92.59" height="17.13"/><rect class="cls-1" x="159.43" y="47.87" width="185.64" height="4.81"/><rect class="cls-1" x="218.41" y="182.22" width="89.36" height="17.79"/><rect class="cls-1" x="495.37" y="226.85" width="50.56" height="7.96"/><rect class="cls-1" x="456.31" y="236.22" width="86.2" height="13.3"/><rect class="cls-1" x="571.64" y="226.29" width="26.94" height="5.12"/><rect class="cls-1" x="582.39" y="238.46" width="34.11" height="5.05"/><rect class="cls-1" x="702.57" y="210.37" width="31.81" height="4.98"/></g></g></svg>