<?xml version="1.0" encoding="UTF-8"?><svg id="Layer_2" xmlns="http://www.w3.org/2000/svg" viewBox="0 0 633.85 127.27"><defs><style>.cls-1{fill:#fff200;}</style></defs><g id="WEB_UX_-_Black"><g><polygon class="cls-1" points="310.98 123.34 322.99 123.34 322.99 125.5 322.99 127.09 333.42 127.09 333.42 125.5 333.42 112.01 310.98 112.01 310.98 123.34"/><path class="cls-1" d="M482.21,1.24l-30.89,.05V3.75h-23.63V1.34l-37.4,.07c-7.28,0-14.02,2.33-19.52,6.28h111.44V1.24Z"/><polygon class="cls-1" points="559.88 125.5 559.88 127.27 569.27 127.27 569.27 125.5 569.27 123.97 582.32 123.97 582.32 112.01 559.88 112.01 559.88 125.5"/><polygon class="cls-1" points="566.5 54.91 559.88 54.91 559.88 63.22 559.88 63.22 559.88 65.07 569.63 65.07 569.63 69.13 559.88 69.13 559.88 76.71 582.32 76.71 582.32 63.21 582.32 63.21 582.32 54.91 588.94 54.91 588.94 41.42 566.5 41.42 566.5 54.91"/><polygon class="cls-1" points="628.88 1.59 617.77 1.59 617.77 3.4 609.66 3.4 609.66 1.59 565.42 1.59 565.42 4.47 546.78 4.47 546.78 1.59 503.38 1.59 503.38 7.68 628.88 7.68 628.88 1.59"/><polygon class="cls-1" points="633.84 10.28 633.84 7.68 508.35 7.68 508.35 10.28 508.35 10.28 508.35 23.77 508.35 24.03 559.88 24.03 559.88 41.41 582.32 41.41 582.32 24.03 610.38 24.03 610.38 23.77 610.38 21.17 624.23 21.17 624.23 23.77 624.23 24.03 633.85 24.03 633.85 23.77 633.85 10.28 633.84 10.28"/><path class="cls-1" d="M372.52,10.28h0c-3.44,3.17-6.25,7.05-8.16,11.4h6.37c-.3,.68-.58,1.39-.84,2.1h10.43v1.97h-17.42c-.92,3.05-1.39,6.28-1.39,9.62v6.07h6.62v13.49h103.24v-8.07h-6.6v3.1h-13.85v-3.1h-60.35v-5.42h-6.62v-6.25c0-5.82,4.44-10.69,10.07-11.4,.47-.05,.94-.09,1.41-.09h75.99v-2.72h8.11v2.72h7.64V10.28h0v-2.6h-111.45c-1.12,.8-2.2,1.66-3.21,2.6Z"/><path class="cls-1" d="M333.41,23.77V7.68h-4.97V1.41h-22.44V7.68h4.97V41.42h6.62v13.49h-6.62v8.3h0v13.49h22.44v-13.49h0v-8.3h6.62v-13.49h-6.62V23.77Zm-14.14,46.38h-8.11v-4.06h8.11v4.06Z"/><polygon class="cls-1" points="361.5 63.22 361.51 63.22 361.51 76.71 383.76 76.71 383.76 69.28 415.85 69.28 415.85 66.49 423.96 66.49 423.96 69.28 454.31 69.28 454.31 66.78 464.74 66.78 464.74 63.22 464.74 63.22 464.74 54.91 361.5 54.91 361.5 63.22"/><polygon class="cls-1" points="377.14 76.71 354.88 76.71 354.88 81.9 361.5 81.9 361.5 95.4 356.54 95.4 356.54 112 361.5 112 361.5 125.5 361.5 126.91 383.76 126.91 383.76 125.5 383.76 112 378.8 112 378.8 95.4 383.76 95.4 383.76 81.9 377.14 81.9 377.14 76.71"/><polygon class="cls-1" points="306.01 95.4 306.01 112 328.45 112 328.45 95.4 333.41 95.4 333.41 81.9 326.79 81.9 326.79 76.71 304.35 76.71 304.35 81.9 310.97 81.9 310.97 95.4 306.01 95.4"/><polygon class="cls-1" points="554.91 95.4 554.91 112 577.35 112 577.35 95.4 582.32 95.4 582.32 81.9 575.7 81.9 575.7 76.71 553.26 76.71 553.26 81.9 559.88 81.9 559.88 95.4 554.91 95.4"/><polygon class="cls-1" points="251.91 124.55 251.91 126.14 257.46 126.14 257.46 124.55 257.46 121.9 272.15 121.9 272.15 124.55 272.15 126.14 274.44 126.14 274.44 124.55 274.44 111 251.91 111 251.91 124.55"/><polygon class="cls-1" points="258.56 45.77 250.22 45.77 250.22 48.29 237.69 48.29 237.69 45.77 177.46 45.77 177.46 40.16 170.82 40.16 170.82 22.45 148.29 22.45 148.29 23 159.63 23 159.63 28.62 148.29 28.62 148.29 40.16 154.94 40.16 154.94 53.7 148.29 53.7 148.29 62.03 148.29 62.03 148.29 75.58 170.82 75.58 170.82 68.29 188.51 68.29 188.51 63.12 206.48 63.12 206.48 68.29 251.91 68.29 251.91 75.58 274.44 75.58 274.44 62.03 274.44 62.03 274.44 53.71 281.08 53.71 281.08 40.16 258.56 40.16 258.56 45.77"/><polygon class="cls-1" points="251.91 8.9 251.91 8.9 251.91 13.4 266.3 13.4 266.3 17.84 251.91 17.84 251.91 22.45 251.91 22.45 251.91 40.16 274.44 40.16 274.44 22.45 274.44 22.45 274.44 8.9 274.44 8.9 274.44 6.3 269.45 6.3 269.45 0 246.93 0 246.93 6.3 251.91 6.3 251.91 8.9"/><polygon class="cls-1" points="148.29 8.9 148.29 22.45 170.82 22.45 170.82 8.9 170.82 6.3 165.83 6.3 165.83 0 143.31 0 143.31 6.3 148.29 6.3 148.29 8.9"/><polygon class="cls-1" points="164.17 75.58 141.65 75.58 141.65 80.79 148.29 80.79 148.29 94.33 143.31 94.33 143.31 111 148.29 111 148.29 124.55 148.29 126.14 170.82 126.14 170.82 124.55 170.82 111 165.83 111 165.83 94.33 170.82 94.33 170.82 80.79 164.17 80.79 164.17 75.58"/><polygon class="cls-1" points="246.93 94.33 246.93 111 269.45 111 269.45 94.33 274.44 94.33 274.44 80.79 267.79 80.79 267.79 75.58 245.27 75.58 245.27 80.79 251.91 80.79 251.91 94.33 246.93 94.33"/><path class="cls-1" d="M4.17,86.4c0,2.74,.28,5.43,.81,8.01H28.67c-.92-1.76-1.55-3.68-1.81-5.72h-6.17v-2.29H4.17Z"/><path class="cls-1" d="M84.25,.07h-29.4V3.91h-15.18V.07h-6.6C25.75,.07,19,2.41,13.48,6.37H103.91C98.34,2.41,91.56,.07,84.25,.07Z"/><path class="cls-1" d="M18.07,116.6h28.61v4.44H24.38c2.64,1.5,5.48,2.71,8.46,3.58,3.55,1.03,7.29,1.59,11.16,1.59h31.75v-3.48h12.96v3.13c2.03-.26,4-.68,5.9-1.23,8.04-2.35,15.02-7.15,20.09-13.55H12.77c1.59,2.01,3.36,3.85,5.31,5.53Z"/><path class="cls-1" d="M116.26,80.86c-.25-1.78-.62-3.51-1.1-5.21h-24.68c1.25,1.54,2.23,3.3,2.89,5.21h6.65c.6,1.74,.93,3.6,.93,5.53,0,2.89-.73,5.62-2.01,8.01h-4.98c-2.95,5.52-8.81,9.29-15.47,9.29H39.02c-6.66,0-12.44-3.77-15.33-9.29H0c1.27,6.21,3.99,11.88,7.78,16.67H109.72c3.79-4.79,6.52-10.46,7.78-16.67h4.98c.53-2.59,.81-5.27,.81-8.01,0-1.88-.14-3.72-.39-5.53h-6.65Z"/><path class="cls-1" d="M112.13,8.98h0c-1.02-.93-2.11-1.8-3.24-2.6H18.46c-1.13,.81-2.2,1.67-3.22,2.6h0c-4.01,3.68-7.14,8.32-9.03,13.54-1.31,3.63-2.03,7.54-2.03,11.61v.72c0,1.83,.15,3.63,.42,5.38h6.65c.77,4.98,2.6,9.59,5.29,13.54h-6.65c.08,.12,.16,.24,.24,.36,1.26,1.98,2.71,3.79,4.33,5.41,.94,.91,1.94,1.77,2.98,2.57h.01c5.72,4.4,12.83,6.99,20.6,6.99h13.84v-4.89h24.11v4.89h7.47c5.49,0,10.44,2.57,13.67,6.55h24.67c-1.39-4.98-3.74-9.57-6.78-13.55h0c-.24-.32-.48-.63-.74-.94-.54-.54-.9-1.08-1.44-1.62-1.96-2.15-4.16-4.08-6.56-5.77h6.65c-6.43-4.52-14.28-7.21-22.82-7.21H44.7c-4.44,0-8.34-2.6-10.26-6.33h-6.65c-.81-1.58-1.27-3.34-1.27-5.19v-.72c0-6.31,5.23-11.54,11.53-11.54h30.48v-5.38h20.01v5.38h.7c6.31,0,11.53,5.23,11.53,11.54v.72l22.53-.18v-.72c0-4.07-.72-7.98-2.05-11.61-1.91-5.22-5.06-9.86-9.11-13.54Z"/></g></g></svg>