<?xml version="1.0" encoding="UTF-8"?><svg id="Layer_2" xmlns="http://www.w3.org/2000/svg" viewBox="0 0 633.61 127.27"><defs><style>.cls-1{fill:#00a8c3;}</style></defs><g id="WEB_UX_-_Black"><g><polygon class="cls-1" points="339.8 41.42 339.8 54.91 333.18 54.91 333.18 63.22 333.17 63.22 333.17 76.71 326.55 76.71 326.55 81.9 333.18 81.9 333.18 95.4 328.21 95.4 328.21 112.01 333.17 112.01 333.17 127.09 316.39 127.09 316.39 123.34 310.73 123.34 310.73 112.01 305.77 112.01 305.77 95.4 310.74 95.4 310.74 81.9 304.11 81.9 304.11 76.71 310.73 76.71 310.73 70.16 312.67 70.16 312.67 66.1 310.73 66.1 310.73 63.21 310.74 63.21 310.74 54.91 317.36 54.91 317.36 41.42 310.73 41.42 310.73 23.77 310.74 23.77 310.74 7.68 305.77 7.68 305.77 1.41 328.21 1.41 328.21 7.68 333.18 7.68 333.18 23.77 333.17 23.77 333.17 34.21 327 34.21 327 38.28 333.17 38.28 333.17 41.42 339.8 41.42"/><path class="cls-1" d="M486.94,7.68V23.68h-14v-2.73h-8.11v2.73h-69.63c-.48,0-.94,.04-1.41,.09-5.64,.71-10.08,5.58-10.08,11.4v6.25h6.62v5.42h53.98v3.1h13.85v-3.1h12.96v8.07h-6.62v11.87h-16.79v2.5h-30.36v-2.79h-8.11v2.79h-25.71v7.43h-6.63v5.19h6.62v13.5h-4.97v6.88h-4.41v4.06h4.41v5.67h4.97v14.9h-22.25v-14.9h-4.98v-16.61h4.98v-13.5h-6.63v-5.19h6.63v-21.8h6.62v-13.49h-6.62v-6.07c0-3.34,.47-6.56,1.39-9.62h11.06v-1.96h-10.43c.26-.71,.54-1.42,.84-2.1,1.91-4.35,4.7-8.22,8.15-11.39,1.02-.93,2.09-1.79,3.21-2.6h-4.97c5.52-3.94,12.25-6.27,19.53-6.27l31.04-.06V3.75h23.63V1.3l30.89-.05h6.37V7.68h4.96Z"/><polygon class="cls-1" points="633.61 7.68 633.61 23.77 617.63 23.77 617.63 21.18 603.78 21.18 603.78 24.03 582.07 24.03 582.07 41.42 588.7 41.42 588.7 54.91 582.08 54.91 582.08 63.22 582.07 63.22 582.07 76.71 575.46 76.71 575.46 81.9 582.08 81.9 582.08 95.4 577.11 95.4 577.11 112.01 582.07 112.01 582.07 127.27 576.52 127.27 576.52 123.97 562.67 123.97 562.67 127.27 559.63 127.27 559.63 112.01 554.67 112.01 554.67 95.4 559.64 95.4 559.64 81.9 553.02 81.9 553.02 76.71 559.63 76.71 559.63 69.14 563.03 69.14 563.03 65.07 559.63 65.07 559.63 63.21 559.64 63.21 559.64 54.91 566.26 54.91 566.26 41.42 559.63 41.42 559.63 24.03 508.11 24.03 508.11 7.68 503.15 7.68 503.15 1.59 540.18 1.59 540.18 4.47 558.82 4.47 558.82 1.59 603.06 1.59 603.06 3.4 611.17 3.4 611.17 1.59 628.65 1.59 628.65 7.68 633.61 7.68"/><polygon class="cls-1" points="281.09 40.16 281.09 53.71 274.44 53.71 274.44 75.58 267.8 75.58 267.8 80.79 274.44 80.79 274.44 94.33 269.46 94.33 269.46 110.89 274.44 110.89 274.44 126.14 265.55 126.14 265.55 121.86 251.92 121.86 251.92 111 246.94 111 246.94 94.33 251.92 94.33 251.92 80.79 245.27 80.79 245.27 75.58 251.92 75.58 251.92 68.29 199.87 68.29 199.87 63.11 181.9 63.11 181.9 68.29 170.82 68.29 170.82 75.58 164.18 75.58 164.18 80.79 170.82 80.79 170.82 94.33 165.84 94.33 165.84 110.96 170.82 110.96 170.82 118.75 165.86 118.75 165.86 126.14 148.3 126.14 148.3 111 143.32 111 143.32 94.33 148.3 94.33 148.3 80.79 141.65 80.79 141.65 75.58 148.3 75.58 148.3 53.7 154.95 53.7 154.95 40.16 148.3 40.16 148.3 28.61 153.04 28.61 153.04 22.98 148.3 22.98 148.3 6.3 143.32 6.3 143.32 0 165.84 0 165.84 6.3 170.82 6.3 170.82 40.16 177.47 40.16 177.47 45.77 231.09 45.77 231.09 48.31 243.63 48.31 243.63 45.77 258.57 45.77 258.57 40.16 251.92 40.16 251.92 17.84 259.72 17.84 259.72 13.4 251.92 13.4 251.92 6.3 246.94 6.3 246.94 0 269.46 0 269.46 6.3 274.44 6.3 274.44 40.16 281.09 40.16"/><path class="cls-1" d="M100.76,35.04v-.72c0-6.31-5.22-11.54-11.52-11.54h-7.3v-5.38h-20.02v5.38h-23.87c-6.3,0-11.53,5.23-11.53,11.54v.72c0,1.86,.46,3.62,1.27,5.19h6.65c1.92,3.74,5.82,6.34,10.26,6.34h45.41c8.54,0,16.39,2.68,22.82,7.21h-6.65c2.4,1.68,4.6,3.61,6.56,5.76,.54,.55,.9,1.08,1.44,1.63,.25,.31,.49,.62,.74,.94,3.04,3.97,5.39,8.57,6.78,13.54h-6.64c.48,1.7,.85,3.44,1.1,5.21h6.64c.26,1.81,.39,3.66,.39,5.54,0,2.74-.28,5.42-.8,8.01h-4.99c-1.27,6.2-3.99,11.88-7.78,16.67h4.98c-5.06,6.39-12.04,11.2-20.09,13.55-3.53,1.02-7.27,1.58-11.15,1.58h-1.34v-3.49h-12.97v3.49h-25.15c-3.87,0-7.61-.56-11.16-1.58-2.99-.89-5.84-2.1-8.5-3.61h15.75v-4.44H18.05c-1.93-1.66-3.71-3.5-5.28-5.5H7.78c-3.79-4.79-6.51-10.47-7.78-16.67H4.95c-.53-2.6-.8-5.3-.8-8.06H14.08v2.34h11.09v-2.34h1.51c0,2.94,.71,5.71,1.97,8.14h-4.91c2.9,5.48,8.65,9.21,15.28,9.21h39.46c6.66,0,12.53-3.77,15.47-9.29h4.99c1.28-2.4,2.01-5.12,2.01-8.01,0-1.94-.33-3.8-.93-5.54h-6.65c-.66-1.9-1.64-3.66-2.89-5.21h6.65c-3.23-3.98-8.18-6.55-13.67-6.55h-14.05v-4.89h-24.11v4.89h-7.25c-7.78,0-14.89-2.59-20.61-6.99h-.01c-1.04-.8-2.04-1.65-2.98-2.57-1.62-1.62-3.07-3.42-4.33-5.4l-.24-.36h6.64c-2.69-3.96-4.52-8.56-5.29-13.55H4.59c-.27-1.74-.42-3.54-.42-5.37v-.73c0-4.07,.72-7.98,2.03-11.61,1.9-5.22,5.02-9.86,9.03-13.54h0c1.02-.95,2.09-1.8,3.22-2.61h-4.98C19,2.41,25.75,.07,33.06,.07V3.88h15.18V.07h36.01c7.31,0,14.09,2.34,19.66,6.3h4.98c1.13,.81,2.21,1.66,3.24,2.6h.01c1.45,1.33,2.78,2.77,3.99,4.32h-7.85v5.29h11.22c.66,1.28,1.25,2.58,1.74,3.94,1.33,3.63,2.05,7.54,2.05,11.61v.73l-22.53,.18Z"/></g></g></svg>