<?xml version="1.0" encoding="UTF-8"?><svg id="Layer_2" xmlns="http://www.w3.org/2000/svg" viewBox="0 0 634.42 127.27"><defs><style>.cls-1{fill:#b64790;}</style></defs><g id="WEB_UX_-_Black"><g><polygon class="cls-1" points="318.17 54.91 311.54 54.91 311.54 63.22 311.54 76.71 304.92 76.71 304.92 81.9 311.54 81.9 311.54 95.4 306.58 95.4 306.58 112 311.54 112 311.54 125.5 311.54 127.09 333.98 127.09 333.98 125.5 333.98 112 329.02 112 329.02 95.4 333.98 95.4 333.98 81.9 327.36 81.9 327.36 76.71 333.98 76.71 333.98 63.22 333.98 54.91 340.61 54.91 340.61 41.42 318.17 41.42 318.17 54.91"/><path class="cls-1" d="M482.78,1.24h-6.18l-6.37,.03-30.89,.05V3.75h-23.63V1.35l-24.85,.05c-7.28,0-14.02,2.33-19.52,6.28h111.44V1.24Z"/><polygon class="cls-1" points="629.45 1.59 605.79 1.59 605.79 3.4 597.68 3.4 597.68 1.59 553.44 1.59 553.44 4.47 534.8 4.47 534.8 1.59 503.95 1.59 503.95 7.68 629.45 7.68 629.45 1.59"/><polygon class="cls-1" points="560.45 123.97 571.14 123.97 571.14 125.5 571.14 127.27 582.89 127.27 582.89 125.5 582.89 112.01 560.45 112.01 560.45 123.97"/><polygon class="cls-1" points="567.07 54.91 560.45 54.91 560.45 63.22 560.45 76.71 553.83 76.71 553.83 81.9 560.45 81.9 560.45 95.4 555.48 95.4 555.48 112 577.92 112 577.92 95.4 582.89 95.4 582.89 81.9 576.27 81.9 576.27 76.71 582.89 76.71 582.89 63.22 582.89 54.91 589.51 54.91 589.51 41.42 567.07 41.42 567.07 54.91"/><polygon class="cls-1" points="634.41 10.28 634.41 7.68 508.92 7.68 508.92 10.28 508.92 10.28 508.92 23.77 508.92 24.03 560.45 24.03 560.45 41.41 582.89 41.41 582.89 24.03 598.4 24.03 598.4 23.77 598.4 21.17 612.25 21.17 612.25 23.77 612.25 24.03 634.42 24.03 634.42 23.77 634.42 10.28 634.41 10.28"/><polygon class="cls-1" points="311.54 10.28 311.54 23.77 311.55 23.77 311.55 41.41 333.99 41.41 333.99 38.28 321.62 38.28 321.62 34.21 333.99 34.21 333.99 23.77 333.98 23.77 333.98 10.28 333.98 7.68 329.02 7.68 329.02 1.41 306.58 1.41 306.58 7.68 311.54 7.68 311.54 10.28"/><path class="cls-1" d="M373.09,10.28h0c-3.44,3.17-6.25,7.05-8.16,11.4-.3,.68-.58,1.39-.84,2.1h4.24v1.97h-4.87c-.92,3.05-1.39,6.28-1.39,9.62v6.07h6.62v13.49h103.24v-8.07h-19.15v3.1h-13.85v-3.1h-47.8v-5.42h-6.62v-6.25c0-5.82,4.44-10.69,10.07-11.4,.47-.05,.93-.09,1.41-.09h63.44v-2.72h8.11v2.72h20.19V10.28h0v-2.6h-111.45c-1.12,.8-2.2,1.66-3.21,2.6Z"/><polygon class="cls-1" points="362.07 63.22 362.08 63.22 362.08 76.71 384.33 76.71 384.33 69.28 403.87 69.28 403.87 66.49 411.98 66.49 411.98 69.28 442.33 69.28 442.33 66.78 465.31 66.78 465.31 63.22 465.31 63.22 465.31 54.91 362.07 54.91 362.07 63.22"/><polygon class="cls-1" points="377.71 76.71 355.45 76.71 355.45 81.9 362.07 81.9 362.07 95.4 384.33 95.4 384.33 81.9 377.71 81.9 377.71 76.71"/><polygon class="cls-1" points="379.37 106.34 368.76 106.34 368.76 102.28 379.37 102.28 379.37 95.4 357.11 95.4 357.11 112.01 362.07 112.01 362.07 125.5 362.07 126.91 384.33 126.91 384.33 125.5 384.33 112 379.37 112 379.37 106.34"/><polygon class="cls-1" points="149.51 124.55 149.51 126.14 160.49 126.14 160.49 124.55 160.49 118.78 172.03 118.78 172.03 111 149.51 111 149.51 124.55"/><polygon class="cls-1" points="253.13 121.89 260.16 121.89 260.16 124.55 260.16 126.14 275.65 126.14 275.65 124.55 275.65 111 253.13 111 253.13 121.89"/><polygon class="cls-1" points="259.78 45.77 238.26 45.77 238.26 48.31 225.71 48.31 225.71 45.77 178.68 45.77 178.68 40.16 156.16 40.16 156.16 53.7 149.51 53.7 149.51 62.03 149.51 62.03 149.51 75.58 172.03 75.58 172.03 68.29 176.53 68.29 176.53 63.11 194.5 63.11 194.5 68.29 253.13 68.29 253.13 75.58 275.65 75.58 275.65 62.04 275.66 62.04 275.66 53.71 282.3 53.71 282.3 40.16 259.78 40.16 259.78 45.77"/><polygon class="cls-1" points="253.13 8.9 253.13 8.9 253.13 13.4 254.34 13.4 254.34 17.84 253.13 17.84 253.13 22.45 253.13 22.45 253.13 40.16 275.66 40.16 275.66 22.45 275.65 22.45 275.65 8.9 275.66 8.9 275.66 6.3 270.67 6.3 270.67 0 248.15 0 248.15 6.3 253.13 6.3 253.13 8.9"/><polygon class="cls-1" points="149.51 8.9 149.51 22.45 149.51 40.16 172.04 40.16 172.04 22.45 172.04 8.9 172.04 6.3 167.05 6.3 167.05 0 144.53 0 144.53 6.3 149.51 6.3 149.51 8.9"/><polygon class="cls-1" points="165.39 75.58 142.87 75.58 142.87 80.79 149.51 80.79 149.51 94.33 144.53 94.33 144.53 111 167.05 111 167.05 94.33 172.04 94.33 172.04 80.79 165.39 80.79 165.39 75.58"/><polygon class="cls-1" points="269.01 75.58 246.49 75.58 246.49 80.79 253.13 80.79 253.13 94.33 248.15 94.33 248.15 111 270.67 111 270.67 94.33 275.66 94.33 275.66 80.79 269.01 80.79 269.01 75.58"/><path class="cls-1" d="M4.17,86.4c0,2.74,.28,5.43,.81,8.01H28.67c-1.26-2.4-1.97-5.11-1.97-8.01h-6.9v2.29H8.72v-2.29H4.17Z"/><path class="cls-1" d="M84.25,.07H42.87V3.9h-15.18V.5c-5.23,.84-10.06,2.9-14.21,5.87H103.91C98.34,2.41,91.56,.07,84.25,.07Z"/><path class="cls-1" d="M18.06,116.59h16.65v4.43h-10.37c2.65,1.52,5.5,2.73,8.5,3.61,3.55,1.03,7.29,1.59,11.16,1.59h19.77v-3.5h12.96v3.5h6.74c3.88,0,7.62-.56,11.15-1.59,8.03-2.35,15.02-7.15,20.09-13.55H12.77c1.59,2.01,3.36,3.85,5.29,5.51Z"/><path class="cls-1" d="M116.26,80.86c-.25-1.78-.62-3.51-1.1-5.21h-24.68c1.25,1.54,2.23,3.3,2.89,5.21h6.65c.6,1.74,.93,3.6,.93,5.53,0,2.89-.73,5.62-2.01,8.01h-4.98c-2.95,5.52-8.81,9.29-15.47,9.29H39.02c-6.66,0-12.44-3.77-15.33-9.29H0c1.27,6.21,3.99,11.88,7.78,16.67H109.72c3.79-4.79,6.52-10.46,7.78-16.67h4.98c.53-2.59,.81-5.27,.81-8.01,0-1.88-.14-3.72-.39-5.53h-6.65Z"/><path class="cls-1" d="M112.13,8.98h0c-1.02-.93-2.11-1.8-3.24-2.6H18.46c-1.13,.81-2.2,1.67-3.22,2.6h0c-4.01,3.68-7.14,8.32-9.03,13.54-1.31,3.63-2.03,7.54-2.03,11.61v.72c0,1.83,.15,3.63,.42,5.38h6.65c.77,4.98,2.6,9.59,5.29,13.54h-6.65c.08,.12,.16,.24,.24,.36,1.26,1.98,2.71,3.79,4.33,5.41,.94,.91,1.94,1.77,2.98,2.57h.01c5.72,4.4,12.83,6.99,20.6,6.99h1.88v-4.87h24.11v4.87h19.43c5.49,0,10.44,2.57,13.67,6.55h24.67c-1.39-4.98-3.74-9.57-6.78-13.55h0c-.24-.32-.48-.63-.74-.94-.54-.54-.9-1.08-1.44-1.62-1.96-2.15-4.16-4.08-6.56-5.77h6.65c-6.43-4.52-14.28-7.21-22.82-7.21H44.7c-4.44,0-8.34-2.6-10.26-6.33h-6.65c-.81-1.58-1.27-3.34-1.27-5.19v-.72c0-6.31,5.23-11.54,11.53-11.54h18.5v-5.37h20.02v5.37h12.65c6.32,0,11.54,5.23,11.54,11.54v.72l22.53-.18v-.72c0-4.07-.73-7.98-2.05-11.61-1.91-5.22-5.06-9.86-9.11-13.54Z"/></g></g></svg>