<?xml version="1.0" encoding="UTF-8"?><svg id="Layer_2" xmlns="http://www.w3.org/2000/svg" viewBox="0 0 663.84 134.46"><defs><style>.cls-1{fill:#fff;}.cls-2{fill:#fff200;}.cls-3{fill:#b64790;}.cls-4{fill:#00a8c3;}</style></defs><g id="WEB_UX_-_Black"><g><rect class="cls-4" x="631.1" y="27.83" width="15.98" height=".26"/><rect class="cls-3" x="295.61" y="100.49" width="4.06" height="4.06"/><rect class="cls-4" x="408.67" y="76.24" width="4.06" height="4.06"/><rect class="cls-2" x="357.99" y="93.18" width="4.06" height="4.06"/><rect class="cls-4" x="307.9" y="16.78" width="4.06" height="4.06"/><rect class="cls-3" x="493.58" y="70.98" width="4.06" height="4.06"/><rect class="cls-4" x="554.93" y="47.12" width="4.06" height="4.06"/><rect class="cls-3" x="609.46" y="120.97" width="4.06" height="4.06"/><rect class="cls-3" x="659.78" y="7.69" width="4.06" height="4.06"/><rect class="cls-2" x="550.79" y="116.81" width="4.06" height="4.06"/><rect class="cls-2" x="347.62" y="36.47" width="13.85" height="4.13" transform="translate(709.08 77.06) rotate(180)"/><rect class="cls-3" x="308.86" y="129.15" width="13.85" height="4.13"/><rect class="cls-3" x="569" y="129.77" width="13.85" height="4.13"/><rect class="cls-2" x="626.5" y="26.53" width="13.85" height="4.13" transform="translate(1266.85 57.2) rotate(180)"/><rect class="cls-3" x="555.5" y="70.87" width="13.85" height="4.13"/><rect class="cls-2" x="464.93" y="48.13" width="13.85" height="4.13" transform="translate(943.72 100.39) rotate(180)"/><rect class="cls-2" x="393.14" y="107.9" width="13.85" height="4.13" transform="translate(800.13 219.93) rotate(180)"/><path class="cls-1" d="M387.19,25.73v2.1h-10.43c.26-.71,.54-1.41,.84-2.1h9.59Z"/><rect class="cls-3" x="373.86" y="23.87" width="18.57" height="4.13" transform="translate(766.29 51.86) rotate(180)"/><rect class="cls-2" x="446.75" y="1.93" width="23.64" height="4.13" transform="translate(917.14 8) rotate(180)"/><rect class="cls-3" x="313.85" y="71.89" width="8.11" height="4.13"/><rect class="cls-3" x="474.12" y="26.76" width="8.11" height="4.13"/><rect class="cls-2" x="612.35" y="5.13" width="8.11" height="4.13"/><rect class="cls-3" x="544.02" y="6.21" width="18.65" height="4.13"/><rect class="cls-2" x="418.53" y="72.29" width="8.11" height="4.13"/><rect class="cls-3" x="447.65" y="72.58" width="26.2" height="4.13"/><rect class="cls-2" x="245.78" y="115.37" width="4.08" height="4.08"/><rect class="cls-2" x="253.37" y="34.3" width="4.08" height="4.08"/><rect class="cls-3" x="195.13" y="5.59" width="4.08" height="4.08"/><rect class="cls-3" x="195.14" y="98.99" width="4.08" height="4.08"/><rect class="cls-2" x="199.56" y="68.98" width="17.97" height="5.46"/><rect class="cls-2" x="183.47" y="121.62" width="11.78" height="7.64"/><rect class="cls-3" x="254.39" y="19.29" width="14.67" height="4.44"/><rect class="cls-3" x="152.12" y="28.64" width="11.83" height="5.63"/><rect class="cls-3" x="256.81" y="127.63" width="14.7" height="4.48"/><rect class="cls-3" x="237.58" y="48.63" width="12.54" height="2.73"/><rect class="cls-2" x="136.02" y="56.92" width="4.08" height="4.08"/><rect class="cls-2" x="50.74" y="93.08" width="4.08" height="4.08"/><rect class="cls-3" y="40.06" width="4.08" height="4.08"/><rect class="cls-2" x="24.19" y="130.38" width="4.08" height="4.08"/><rect class="cls-2" x="69.61" y="23.54" width="20.02" height="5.62"/><rect class="cls-3" x="42.94" width="15.18" height="5.63"/><rect class="cls-3" x="56.34" y="69.78" width="24.11" height="5.78"/><rect class="cls-2" x="84.57" y="128.65" width="12.96" height="3.75"/><rect class="cls-2" x="29.98" y="88.76" width="11.09" height="2.62"/><rect class="cls-2" x="124.09" y="14.27" width="12.79" height="5.29"/><rect class="cls-3" x="16.48" y="118.41" width="29.68" height="4.44"/></g></g></svg>