<?xml version="1.0" encoding="UTF-8"?><svg id="Layer_2" xmlns="http://www.w3.org/2000/svg" viewBox="0 0 1506.38 821.39"><defs><style>.cls-1{fill:#fff200;}</style></defs><g id="UNIVERSALV"><g><rect class="cls-1" x=".21" y="5.12" width="162.02" height="3.66"/><rect class="cls-1" x="121.05" y="81.01" width="457.63" height="6.95"/><rect class="cls-1" x="981.97" y="187.79" width="306.52" height="8.05"/><rect class="cls-1" x="890.82" y="121.36" width="397.76" height="3.76"/><rect class="cls-1" x="54.23" y="154.25" width="530.11" height="6.63"/><rect class="cls-1" x="589.34" y="181.81" width="357.98" height="4.66"/><rect class="cls-1" x="925.33" y="156.8" width="76.63" height="5.89"/><rect class="cls-1" x="1004.74" y="211.85" width="129.85" height="7.12"/><rect class="cls-1" x="1200.7" y="217.88" width="305.52" height="3.02"/><rect class="cls-1" x="1345.94" y="232.4" width="158.77" height="5.99"/><rect class="cls-1" x="675.63" y="292.05" width="830.32" height="6.03"/><rect class="cls-1" x="704.26" y="243.05" width="32.3" height="7.83"/><rect class="cls-1" x="716.31" y="232.83" width="63.66" height="4.49"/><rect class="cls-1" y="167.21" width="779.92" height="5.19"/><rect class="cls-1" x="386.57" y="31.97" width="154.77" height="7.69"/><rect class="cls-1" x="486.53" y="36.74" width="187.96" height="6.26"/><rect class="cls-1" x="212.07" width="532.64" height="3.87"/><rect class="cls-1" x="8.85" y="335.32" width="620.83" height="4.31"/><rect class="cls-1" x="139.16" y="346.13" width="601.25" height="5.43"/><rect class="cls-1" x="399.44" y="315.34" width="203.62" height="6.37"/><rect class="cls-1" x="329.78" y="295.34" width="195.79" height="6.32"/><rect class="cls-1" x="1.54" y="271.73" width="315.33" height="4.57"/><rect class="cls-1" x="1204.29" y="310.77" width="163.48" height="6.08"/><rect class="cls-1" x="1100.61" y="327.58" width="245.75" height="3.74"/><rect class="cls-1" x="984.28" y="352.11" width="354.42" height="6.49"/><rect class="cls-1" x="1233.07" y="368.54" width="101.88" height="6.11"/><rect class="cls-1" x="1278.38" y="405.42" width="100.89" height="4.16"/><rect class="cls-1" x="905.29" y="403.24" width="196.85" height="5.43"/><rect class="cls-1" x="699.53" y="452.71" width="606.65" height="7.35"/><rect class="cls-1" x="1174.39" y="446.32" width="331.99" height="6.4"/><rect class="cls-1" x="1069.57" y="427.66" width="112.52" height="11.59"/><rect class="cls-1" x="98.69" y="497.64" width="615.86" height="6.43"/><rect class="cls-1" x="65" y="443.72" width="253.57" height="5.76"/><rect class="cls-1" x="380.28" y="447.19" width="69.55" height="4.39"/><rect class="cls-1" x="85.94" y="764.93" width="632.5" height="6.55"/><rect class="cls-1" x="137.42" y="707.91" width="72.42" height="5.42"/><rect class="cls-1" x="287.03" y="680.49" width="57.73" height="5.31"/><rect class="cls-1" x="456.42" y="684.58" width="226.24" height="6.19"/><rect class="cls-1" x="237.19" y="555.96" width="401.41" height="7.81"/><rect class="cls-1" x="428.81" y="522.24" width="142.06" height="10.72"/><rect class="cls-1" x="138.56" y="590.41" width="205.55" height="10.3"/><rect class="cls-1" x="290.36" y="604.51" width="138.14" height="10.75"/><rect class="cls-1" x="377.47" y="596.67" width="319.19" height="3.3"/><rect class="cls-1" x="664.83" y="587.75" width="46.45" height="6.54"/><rect class="cls-1" x="89.24" y="809.18" width="332.83" height="12.21"/><rect class="cls-1" x="43.18" y="810.71" width="708.89" height="4.17"/><rect class="cls-1" x="649.18" y="794.75" width="817.57" height="5.93"/><rect class="cls-1" x="855.87" y="810.93" width="91.12" height="7.17"/><rect class="cls-1" x="934.17" y="774.28" width="19.29" height="5.61"/><rect class="cls-1" x="923.03" y="752.24" width="194.83" height="3.37"/><rect class="cls-1" x="1124.82" y="759.66" width="49.89" height="7.22"/><rect class="cls-1" x="762.69" y="551.61" width="564.98" height="3.97"/><rect class="cls-1" x="711.13" y="537.86" width="238.12" height="4.32"/><rect class="cls-1" x="1229.01" y="584.55" width="265.37" height="6.14"/><rect class="cls-1" x="1078.52" y="560.42" width="227.07" height="10.46"/><rect class="cls-1" x="1050.77" y="629.22" width="455.02" height="3.76"/><rect class="cls-1" x="1269.81" y="645.79" width="109.99" height="3.24"/><rect class="cls-1" x="1123.57" y="651.9" width="381.36" height="2.28"/><rect class="cls-1" x="788.93" y="686.04" width="356.07" height="6.62"/><rect class="cls-1" x="348.17" y="637.35" width="485.78" height="2.53"/></g></g></svg>