<svg id="Layer_1" data-name="Layer 1" xmlns="http://www.w3.org/2000/svg" xmlns:xlink="http://www.w3.org/1999/xlink" viewBox="0 0 1920 1080"><defs><style>.cls-1,.cls-10,.cls-11,.cls-12,.cls-13,.cls-14,.cls-15,.cls-16,.cls-17,.cls-18,.cls-19,.cls-20,.cls-21,.cls-22,.cls-23,.cls-24,.cls-25,.cls-26,.cls-27,.cls-28,.cls-29,.cls-30,.cls-31,.cls-32,.cls-33,.cls-34,.cls-35,.cls-5,.cls-6,.cls-7,.cls-8,.cls-9{fill:none;}.cls-2,.cls-36{fill:#231f20;}.cls-3{clip-path:url(#clip-path);}.cls-4{clip-path:url(#clip-path-3);}.cls-10,.cls-11,.cls-12,.cls-13,.cls-14,.cls-15,.cls-16,.cls-17,.cls-18,.cls-19,.cls-20,.cls-21,.cls-22,.cls-23,.cls-24,.cls-25,.cls-26,.cls-27,.cls-28,.cls-29,.cls-30,.cls-31,.cls-32,.cls-33,.cls-34,.cls-35,.cls-5,.cls-6,.cls-7,.cls-8,.cls-9{stroke:#ff9e18;stroke-miterlimit:10;}.cls-5{stroke-width:0.82px;}.cls-6{stroke-width:0.89px;}.cls-7{stroke-width:0.97px;}.cls-8{stroke-width:1.05px;}.cls-9{stroke-width:1.14px;}.cls-10{stroke-width:1.24px;}.cls-11{stroke-width:1.35px;}.cls-12{stroke-width:1.47px;}.cls-13{stroke-width:1.6px;}.cls-14{stroke-width:1.74px;}.cls-15{stroke-width:1.89px;}.cls-16{stroke-width:2.05px;}.cls-17{stroke-width:2.23px;}.cls-18{stroke-width:2.42px;}.cls-19{stroke-width:2.63px;}.cls-20{stroke-width:2.86px;}.cls-21{stroke-width:3.11px;}.cls-22{stroke-width:3.38px;}.cls-23{stroke-width:3.68px;}.cls-24{stroke-width:4px;}.cls-25{stroke-width:4.34px;}.cls-26{stroke-width:4.72px;}.cls-27{stroke-width:5.13px;}.cls-28{stroke-width:5.58px;}.cls-29{stroke-width:6.06px;}.cls-30{stroke-width:6.59px;}.cls-31{stroke-width:7.16px;}.cls-32{stroke-width:7.79px;}.cls-33{stroke-width:8.46px;}.cls-34{stroke-width:9.2px;}.cls-35{stroke-width:10px;}.cls-36{opacity:0.7;}</style><clipPath id="clip-path"><rect class="cls-1" x="1" width="1924" height="1079"/></clipPath><clipPath id="clip-path-3"><rect class="cls-1" x="6" width="1914" height="1086"/></clipPath></defs><rect class="cls-2" x="0.56" y="3.01" width="1920" height="1079"/><g class="cls-3"><rect class="cls-1" width="1920" height="1086"/></g><g class="cls-3"><g class="cls-4"><rect class="cls-5" x="893.88" y="523.02" width="153.36" height="164.99" transform="translate(-172.73 566.4) rotate(-30)"/><rect class="cls-6" x="887.21" y="515.84" width="166.7" height="179.34" transform="translate(-167.21 486.75) rotate(-26)"/><rect class="cls-7" x="879.96" y="508.05" width="181.19" height="194.93" transform="translate(-156.16 407.67) rotate(-22)"/><rect class="cls-8" x="872.08" y="499.57" width="196.95" height="211.88" transform="translate(-139.61 329.55) rotate(-18)"/><rect class="cls-9" x="863.52" y="490.36" width="214.07" height="230.3" transform="translate(-117.66 252.79) rotate(-14)"/><rect class="cls-10" x="854.21" y="480.35" width="232.69" height="250.33" transform="translate(-90.4 177.73) rotate(-10)"/><rect class="cls-11" x="844.1" y="469.46" width="252.92" height="272.1" transform="translate(-57.98 104.77) rotate(-6)"/><rect class="cls-12" x="833.1" y="457.63" width="274.92" height="295.76" transform="translate(-20.54 34.24) rotate(-2)"/><rect class="cls-13" x="809.82" y="456.1" width="321.48" height="298.82" transform="translate(331.54 1554.35) rotate(-88)"/><rect class="cls-14" x="795.84" y="443.11" width="349.43" height="324.81" transform="translate(266.91 1507.46) rotate(-84)"/><rect class="cls-15" x="780.65" y="428.99" width="379.82" height="353.05" transform="translate(205.71 1456.18) rotate(-80)"/><rect class="cls-16" x="764.13" y="413.64" width="412.85" height="383.75" transform="translate(148.23 1400.75) rotate(-76)"/><rect class="cls-17" x="746.18" y="396.95" width="448.75" height="417.12" transform="translate(94.76 1341.45) rotate(-72)"/><rect class="cls-18" x="726.67" y="378.82" width="487.77" height="453.39" transform="translate(45.56 1278.57) rotate(-68)"/><rect class="cls-19" x="705.47" y="359.1" width="530.18" height="492.82" transform="translate(0.86 1212.4) rotate(-64)"/><rect class="cls-20" x="682.41" y="337.68" width="576.28" height="535.67" transform="translate(-39.11 1143.28) rotate(-60)"/><rect class="cls-21" x="657.36" y="314.39" width="626.4" height="582.25" transform="translate(-74.16 1071.54) rotate(-56)"/><rect class="cls-22" x="630.12" y="289.07" width="680.86" height="632.88" transform="translate(-104.13 997.53) rotate(-52)"/><rect class="cls-23" x="600.52" y="261.56" width="740.07" height="687.91" transform="translate(-128.86 921.61) rotate(-48)"/><rect class="cls-24" x="568.34" y="231.65" width="804.42" height="747.73" transform="translate(-148.23 844.15) rotate(-44)"/><rect class="cls-25" x="533.37" y="199.14" width="874.37" height="812.75" transform="translate(-162.15 765.52) rotate(-40)"/><rect class="cls-26" x="495.35" y="163.8" width="950.41" height="883.43" transform="translate(-170.55 686.12) rotate(-36)"/><rect class="cls-27" x="454.03" y="125.39" width="1033.05" height="960.24" transform="translate(-173.39 606.33) rotate(-32)"/><rect class="cls-28" x="409.12" y="83.64" width="1122.88" height="1043.74" transform="translate(-170.66 526.53) rotate(-28)"/><rect class="cls-29" x="360.3" y="38.26" width="1220.52" height="1134.5" transform="translate(-162.37 447.11) rotate(-24)"/><rect class="cls-30" x="307.23" y="-11.07" width="1326.66" height="1233.16" transform="translate(-148.57 368.47) rotate(-20)"/><rect class="cls-31" x="249.55" y="-64.68" width="1442.02" height="1340.39" transform="translate(-129.3 290.98) rotate(-16)"/><rect class="cls-32" x="186.85" y="-122.96" width="1567.41" height="1456.94" transform="translate(-104.68 215.02) rotate(-12)"/><rect class="cls-33" x="118.7" y="-186.31" width="1703.71" height="1583.63" transform="translate(-74.83 140.97) rotate(-8)"/><rect class="cls-34" x="44.63" y="-255.16" width="1851.86" height="1721.34" transform="translate(-39.87 69.18) rotate(-4)"/><rect class="cls-35" x="-35.89" y="-330" width="2012.89" height="1871.02"/></g></g><rect class="cls-36" x="1" width="1924" height="1079"/></svg>