<svg id="Layer_1" data-name="Layer 1" xmlns="http://www.w3.org/2000/svg" viewBox="0 0 1920 1080"><defs><style>.cls-1,.cls-3{fill:#231f20;}.cls-2{fill:#ff85bb;}.cls-3{opacity:0.7;}</style></defs><rect class="cls-1" x="-4" width="1924" height="1079"/><path class="cls-2" d="M1920,1048.22v40.37q-14.67-5-29.43-9.59c-61.81-19.19-124.49-32.22-186.5-29.51-39.55,1.72-72.13,12.5-99.21,29.51h-60.1c29.84-36.11,69.4-62.67,123-70.92C1749,995.59,1836.37,1018.61,1920,1048.22Z"/><path class="cls-2" d="M1920,916.79v35.35c-104.94-36.71-243-83.29-336.61-27.38-56.51,33.72-87.45,98-108.92,154.24h-16.81c19.89-61.21,46.08-129.26,97.69-174.4C1650.15,821.7,1813.26,882.87,1920,916.79Z"/><path class="cls-2" d="M1920,792.42v34c-36.43-10-72.84-19.88-109.49-28.74-58.9-14.23-126-29.61-187.62-19.34-65.09,10.85-101.63,55.26-129.27,104.87-34,61.08-57,127.45-74,195.78h-9.23c15.23-67,35.08-132.73,63.46-195.27,22.45-49.42,56-110.05,116.92-130.4,55.32-18.49,122-7.24,177.53,3.59C1819.45,766.91,1869.76,779.54,1920,792.42Z"/><path class="cls-2" d="M1920,674.28v28.39c-86.16-17.19-171.67-32.87-254.38-34.53-153.89-3.08-202.35,121.18-234.8,233.08-17,58.64-30.3,118-41.69,177.78h-7.52c10.11-55.79,21.43-111.39,35.33-166.57,26.23-104.07,65.38-259.58,212.7-271.07C1725,633.91,1823.38,654.82,1920,674.28Z"/><path class="cls-2" d="M1920,561.93v32c-112.45-13.25-271.63-52.66-372.8-1-121.52,62.08-141,248.63-161.45,354.72-8.38,43.62-15.88,87.44-23.24,131.31h-7.41c6.51-39.08,13-78.1,20-116.87,21.05-116.21,35-293.64,145.14-377.64,92.32-70.36,258.91-33.69,368.45-25Q1904.32,560.8,1920,561.93Z"/><path class="cls-2" d="M1920,441.68v34.26c-49.37.49-98.86.07-148.34,0-119.58-.19-243.14,1.17-309.49,101.28-80.62,121.7-89.09,284.55-113.42,420.15-4.81,26.78-9.47,54.08-14.36,81.63h-8.89c4.5-23.89,8.75-47.39,13.06-70.19,26.55-140.62,35.3-299.2,105.37-430.16,56.5-105.55,161-125,285-130.45C1792.78,445.39,1856.5,444.17,1920,441.68Z"/><path class="cls-2" d="M1920,313.63v36.15c-98.59,10.36-197.82,17.75-293.86,38.45-125.52,27.06-186.17,94.51-221.26,200.48-51.14,154.41-59.53,329.91-105.11,490.29H1283.3c4.85-15.32,9.37-30.68,13.66-46,40.65-144.94,54.27-294.56,95.57-439.24,29.71-104.09,77-186.06,198-223.71C1695,337.57,1808.93,328.05,1920,313.63Z"/><path class="cls-2" d="M1920,174.18v40.75c-5.33,1.24-10.63,2.46-16,3.65-130.85,29.59-278.89,46.82-393.22,114.23-101,59.55-124.66,176.32-145.68,273.57-30.51,141.12-49.13,286.24-107.39,421.47A406.79,406.79,0,0,1,1231.2,1079h-29.65a411.86,411.86,0,0,0,38.07-59.29c66.89-128.52,87.82-272,116.18-409.65,20.08-97.32,38.16-221.45,130-290.08,100.87-75.42,247.47-99,371.37-129.79Q1888.59,182.39,1920,174.18Z"/><path class="cls-2" d="M1920,15.23V61.06c-60,19.79-120.09,39.29-179.88,59.36-109.94,36.9-241.71,81.19-307.36,172.51-67,93.19-77.57,215.31-100.37,320.86-26.85,124.42-56.88,265.54-150.27,367-30.49,33.1-61.84,65.73-93.45,98.25H1040c36.94-41.15,74.83-81.64,115.42-120.5,100.1-95.84,138.63-221.91,167.67-346.21,25.29-108.24,35-228.44,93.39-328.27,55.78-95.28,173.66-147.63,281.43-188.87C1771.23,67.09,1845.55,41.06,1920,15.23Z"/><path class="cls-2" d="M1659.43-.13l-.26.13q-31.23,15.42-61.52,32.29c-102.28,57.14-177.83,127.85-215.07,229.57-40.2,109.79-51.23,226.2-86.94,337.11-18.75,58.31-42.92,116.95-80.16,168.45-36.48,50.41-88.68,90.64-129.77,138.16C1037.12,961.75,993,1020.62,948,1079H919.32c47.11-62.65,92.14-126.55,140.93-188.26,40.45-51.13,89.25-93.89,132.6-142.54,41.66-46.73,69.34-102.52,90.36-158.37,41.38-109.93,53.84-225.58,88.93-336.78,32.31-102.38,94-180.08,191.52-244.13,4.59-3,9.24-6,13.88-8.92l.2-.13Z"/><path class="cls-2" d="M1445.38-.13l-.09.13c-119.91,165.48-99,380.17-201.85,554.52-31.32,53.08-77.79,90.64-119,137-48.32,54.42-88,114.67-127.08,174.27-46.77,71.27-92.13,143.87-143,213.2h-21.9c51.65-70.3,96.58-144.65,142-217.75,39.1-63,78-126.58,124.23-185.89,38.29-49.1,90.09-88.53,125.93-138.89C1340,374.18,1321.94,168.19,1415.5,0l.07-.13Z"/><path class="cls-2" d="M1366.54-.13l0,.13c-18.76,61.1-30.29,124.33-46,185.79-28.5,111.26-70.5,208-158.33,293.66C986.79,650.56,925.19,888.26,781.9,1079H766C916.2,888.33,973.61,642.08,1135.57,458.66c36.89-41.78,79.29-75.92,108.41-122.92,32-51.7,52.09-108.41,68.07-165.22,15.84-56.25,26.67-113.94,41.68-170.52l0-.13Z"/><path class="cls-2" d="M1324.4-.13l0,.13c-10.86,42.25-22.4,84.33-38.55,125.35C1239.67,242.52,1135.19,318,1070.75,425.81c-87.86,147-146,306-226.27,456.05-35.14,65.62-74.65,136-125.91,197.14H701.21c51-57.9,89.89-125.85,123.63-188.35C907.77,737,965.46,574.1,1047.55,420.19c32-60.05,67.59-116.62,117.94-166.32,46.12-45.53,81.88-90.87,107.87-147.84,15.77-34.54,27.68-70.11,38.22-106l0-.13Z"/><path class="cls-2" d="M1262.49-.13a.83.83,0,0,1-.07.13,496.15,496.15,0,0,1-30.55,51.82c-38.43,56.72-96.36,99-134.14,156.33-44.28,67.17-76.09,140.62-106.68,213.11-69.75,165.15-125.77,336.53-217,494.12-32.51,56.21-71.81,116.7-123.73,163.62H624.87c53.93-40.63,94.68-97,129.63-154.57,95.09-156.79,150.25-330.57,216.12-497.56,30.41-77.16,61.49-154.9,103-228.17,36.86-65.1,91.43-110.09,137.95-168.61q11.7-14.71,21.89-30.09l.09-.13Z"/><path class="cls-2" d="M1087.64-.13h34.5C1015,130,972,301.56,919.85,451.46,862.35,616.82,809.77,795,702.06,942.16c-34.33,46.93-78.35,99.36-139.06,121.7-51.42,18.92-113.3,16-167.5,11.11-114.27-10.27-227.26-38.21-343-28.18A458.87,458.87,0,0,0-4,1055.21v-40.49Q8.72,1012.6,22,1011.2c116.43-12.28,230.46,17.26,344.3,33.32,56.19,7.9,114.66,13.59,170.84,2.55,63.58-12.47,107.6-57,143.93-101.77,113.57-140,165.21-319.62,220-481.7C952.86,310.23,994.22,140.65,1087.64-.13Z"/><path class="cls-2" d="M1002.13-.13h20.64c-72.73,159.59-114.84,330-169,494.38-48,145.61-99.24,336.36-231.49,444.44-89.12,72.86-220.67,39.5-325.53,14.81C199.21,930.55,97.58,903.29-4,909.78V869.15c90.92-2.7,182.32,21.31,269.05,43.91,99.26,25.86,236.32,71.13,332.9,15.24C658,893.53,698.72,822.43,728.35,767.56c45-83.46,77.22-172.29,106.71-260.68C891.27,338.46,933.71,165.15,1002.13-.13Z"/><path class="cls-2" d="M933.22-.13H952C890.63,175.66,846,355.69,784.26,531.38,745.33,642.16,682.1,842.21,526.06,866.57c-116.21,18.12-239-38.49-346.14-69.47C120.43,779.92,58,765.34-4,762.43V720.82c50.48,3.47,101.25,14.53,150.44,28.58C257.33,781,376.21,840,496.22,833.7c162.41-8.58,225.64-186.8,267.19-298.45C829,359.09,873.92,177.67,933.22-.13Z"/><path class="cls-2" d="M863-.13h20.18C828.39,177,783,358.06,704.94,528.27,651.23,645.32,575.27,752.63,413.5,727.71,289.73,708.62,179,648.44,58,620.12a537.76,537.76,0,0,0-62-10.9V565.07c9.12,1.27,18.4,2.82,27.9,4.69C147.44,594.1,257.28,654,380.06,680c154.56,32.73,240.58-44.24,300.58-161.93C764.51,353.56,809.88,174.16,863-.13Z"/><path class="cls-2" d="M781.11-.13h25.11c-47.87,159.42-93,332.82-194.35,469.27C462.15,670.64,202.07,491-4,449.05V403.33c199.62,41.31,423.55,198.08,586.74,35.82,54.84-54.51,83.71-131.36,111.45-198.43C727,161.54,754.42,80.75,781.11-.13Z"/><path class="cls-2" d="M679.49-.13h32.23c-41.49,124-94.66,264.83-212.11,331.58C335.9,424.5,166,311.68-4,278V228.69C152.15,259.05,310.77,354,465.89,282.75,581.3,229.77,637.56,111.44,679.49-.13Z"/><path class="cls-2" d="M500.68-.13h66.9c-44.64,65.41-104.11,120.51-192.69,143-115.62,29.37-235.84-10-348.13-32.4Q11,107.33-4,104.88V55.22c112.53,16.65,228.23,53.55,343.12,30.53C406.24,72.29,458.47,40.8,500.68-.13Z"/><rect class="cls-3" x="-4" width="1924" height="1079"/></svg>