<?xml version="1.0" encoding="utf-8"?>
<!-- Generator: Adobe Illustrator 25.0.1, SVG Export Plug-In . SVG Version: 6.00 Build 0)  -->
<svg version="1.1" id="Layer_1" xmlns="http://www.w3.org/2000/svg" xmlns:xlink="http://www.w3.org/1999/xlink" x="0px" y="0px"
	 viewBox="0 0 1920 1080" style="enable-background:new 0 0 1920 1080;" xml:space="preserve">
<style type="text/css">
	.st0{fill:#231F20;}
	.st1{fill:#009C86;}
	.st2{opacity:0.7;fill:#231F20;enable-background:new    ;}
</style>
<rect class="st0" width="1920" height="1079"/>
<polygon class="st1" points="693.1,0 693.1,97.6 595.8,97.6 595.8,75.5 667.8,75.5 667.8,30.9 473.1,30.9 473.1,165.1 448.9,165.1 
	448.9,30.5 303.7,30.5 303.7,0 327.8,0 327.8,7 667.9,7 667.9,0 "/>
<polygon class="st1" points="400.8,367.9 157.2,367.9 157.2,346.3 375.3,346.3 375.3,98.5 254.7,98.5 254.7,232.5 230.1,232.5 
	230.1,30.5 157.3,30.5 157.3,7.7 229.1,7.7 229.1,0 254.7,0 254.7,75.1 400.4,75.1 400.4,210.2 521.7,210.2 521.7,75.9 545.7,75.9 
	545.7,233.2 473.5,233.2 473.5,277.8 546.3,277.8 546.3,413.3 741,413.3 741,301.2 668.9,301.2 668.9,166.1 620.1,166.1 
	620.1,345.6 692.2,345.6 692.2,367.9 595.7,367.9 595.7,142.8 741.2,142.8 741.2,0 766.5,0 766.5,165.5 693.3,165.5 693.3,277.9 
	765.6,277.9 765.6,435.9 522.3,435.9 522.3,301 448.6,301 448.6,233.7 400.8,233.7 "/>
<polygon class="st1" points="1107.2,98.3 961.5,98.3 961.5,75.5 1106.1,75.5 1106.1,0 1131.1,0 1131.1,7.1 1179.8,7.1 1179.8,0 
	1205.4,0 1205.4,7.2 1350.7,7.2 1350.7,165.1 1254.2,165.1 1254.2,143 1326.1,143 1326.1,30.8 1131.6,30.8 1131.6,165.2 
	1107.2,165.2 "/>
<polygon class="st1" points="1570.6,435.9 1473.8,435.9 1473.8,414.2 1545.8,414.2 1545.8,278.2 1691.7,278.2 1691.7,143.1 
	1764.8,143.1 1764.8,75.6 1838.4,75.6 1838.4,0 1863.5,0 1863.5,97.7 1790,97.7 1790,165.3 1717.3,165.3 1717.3,277.7 1789,277.7 
	1789,300.5 1717,300.5 1717,503.7 1692.3,503.7 1692.3,301.3 1571,301.3 1571,345.7 1642.8,345.7 1642.8,368.2 1570.6,368.2 "/>
<polygon class="st1" points="1925,0 1925,1067 1912.3,1067 1912.3,1047 1863.5,1047 1863.5,1078.7 1839.1,1078.7 1839.1,1046.8 
	1765.9,1046.8 1765.9,1023.8 1911.3,1023.8 1911.3,843.3 1839.4,843.3 1839.4,820.6 1911.2,820.6 1911.2,708.2 1790.1,708.2 
	1790.1,752.1 1862.5,752.1 1862.5,774.4 1765.2,774.4 1765.2,708.1 1643.6,708.1 1643.6,842.2 1619.2,842.2 1619.2,708.3 
	1497.7,708.3 1497.7,774.9 1424.6,774.9 1424.6,977.9 1400.3,977.9 1400.3,911.1 1278.1,911.1 1278.1,978 1253.9,978 1253.9,911.3 
	1205.3,911.3 1205.3,1023.1 1326.4,1023.1 1326.4,956.4 1350.8,956.4 1350.8,1023.4 1497,1023.4 1497,1078.9 1473.4,1078.9 
	1473.4,1046.8 1351.6,1046.8 1351.6,1078.7 1327.2,1078.7 1327.2,1047.1 1205,1047.1 1205,1078.8 1180.3,1078.8 1180.3,843.1 
	961.2,843.1 961.2,640.5 912.5,640.5 912.5,774.7 839.8,774.7 839.8,910.4 693,910.4 693,978.1 547.1,978.1 547.1,1023.2 
	741.4,1023.2 741.4,956.4 912.2,956.4 912.2,1023.3 960.7,1023.3 960.7,956.2 1033.1,956.2 1033.1,910.7 888.3,910.7 888.3,820.8 
	912.1,820.8 912.1,887.8 1130.8,887.8 1130.8,910.1 1058.8,910.1 1058.8,978.3 985.7,978.3 985.7,1045.7 888.2,1045.7 888.2,979 
	766.3,979 766.3,1078.8 741.8,1078.8 741.8,1046.9 473.2,1046.9 473.2,1079 449.3,1079 449.3,956.6 472.8,956.6 472.8,1023 
	521.5,1023 521.5,911.1 400.6,911.1 400.6,977.9 375.9,977.9 375.9,843.4 108.3,843.4 108.3,909.9 83.9,909.9 83.9,820.6 229,820.6 
	229,708 157.1,708 157.1,640.3 83.9,640.3 83.9,618.1 180.9,618.1 180.9,684.7 253.9,684.7 253.9,820 400.2,820 400.2,887.3 
	521.8,887.3 521.8,820.8 546.1,820.8 546.1,955.4 667.9,955.4 667.9,843.4 620.1,843.4 620.1,909.8 595.7,909.8 595.7,820.4 
	668.2,820.4 668.2,753 692.4,753 692.4,887.5 814.6,887.5 814.6,752.6 887.3,752.6 887.3,618.1 985.2,618.1 985.2,684.5 
	1057.8,684.5 1057.8,707.5 986,707.5 986,819.8 1179.9,819.8 1179.9,685.6 1204.3,685.6 1204.3,819.6 1326.5,819.6 1326.5,752.8 
	1350.6,752.8 1350.6,843 1205.2,843 1205.2,887.4 1399.4,887.4 1399.4,640.2 1327.4,640.2 1327.4,618.1 1424.2,618.1 1424.2,751.8 
	1472.7,751.8 1472.7,572.7 1205.3,572.7 1205.3,616.9 1277.4,616.9 1277.4,684.7 1350.7,684.7 1350.7,707.4 1277.9,707.4 
	1277.9,774.6 1253.9,774.6 1253.9,640.7 1131.6,640.7 1131.6,774.4 1034.7,774.4 1034.7,752.5 1106.4,752.5 1106.4,640.4 
	1034.7,640.4 1034.7,617.4 1180,617.4 1180,550.1 1497.4,550.1 1497.4,684.4 1618.8,684.4 1618.8,618.1 1643.3,618.1 1643.3,684.4 
	1911.4,684.4 1911.4,504.7 1839.2,504.7 1839.2,482.1 1911.3,482.1 1911.3,165.9 1839.1,165.9 1839.1,142.8 1911.3,142.8 1911.3,0 
	"/>
<polygon class="st1" points="156.2,98.2 83.8,98.2 83.8,0 108.3,0 108.3,75.2 181.1,75.2 181.1,277.6 302.8,277.6 302.8,143.1 
	326.6,143.1 326.6,300.6 108.3,300.6 108.3,413.2 448.2,413.2 448.2,346.7 472.8,346.7 472.8,481.5 545.9,481.5 545.9,571.6 
	522.2,571.6 522.2,504.5 448.8,504.5 448.8,436.9 327.6,436.9 327.6,571.5 302.9,571.5 302.9,504.5 157.2,504.5 157.2,482.2 
	302.2,482.2 302.2,436.6 83.8,436.6 83.8,278.2 156.2,278.2 "/>
<polygon class="st1" points="1474,75.8 1545.1,75.8 1545.1,0 1570.6,0 1570.6,97.6 1474,97.6 "/>
<polygon class="st1" points="1790.1,0 1790.1,30 1716.9,30 1716.9,97.8 1643.7,97.8 1643.7,233.1 1424.4,233.1 1424.4,300.7 
	1351.6,300.7 1351.6,368 1327.3,368 1327.3,278.2 1399.5,278.2 1399.5,234 1131.7,234 1131.7,345.4 1252.8,345.4 1252.8,301.1 
	1181,301.1 1181,278.6 1277.2,278.6 1277.2,368.4 1205.4,368.4 1205.4,413.4 1277.3,413.4 1277.3,436.2 1205.1,436.2 1205.1,504.1 
	1131.6,504.1 1131.6,571.8 839.8,571.8 839.8,707.5 766.3,707.5 766.3,842.2 741.8,842.2 741.8,708.4 619.7,708.4 619.7,774.3 
	595.2,774.3 595.2,708.1 546.5,708.1 546.5,775 473.4,775 473.4,842.2 448.8,842.2 448.8,775.3 303.2,775.3 303.2,640.1 230,640.1 
	230,572.6 83.6,572.6 83.6,504.8 35.1,504.8 35.1,684.7 107.4,684.7 107.4,752 180.2,752 180.2,774.5 83.6,774.5 83.6,708.3 
	34.9,708.3 34.9,955.4 156.4,955.4 156.4,888.4 180.8,888.4 180.8,955.4 229.3,955.4 229.3,888.6 253.6,888.6 253.6,1078.7 
	229.9,1078.7 229.9,979.1 35.1,979.1 35.1,1023.6 180.4,1023.6 180.4,1045.9 34.5,1045.9 34.5,1079 10.1,1079 10.1,0 35,0 35,209.9 
	83.1,209.9 83.1,143.2 106.9,143.2 106.9,233.3 34.8,233.3 34.8,481.4 107.5,481.4 107.5,549.4 254,549.4 254,616.8 375.5,616.8 
	375.5,482.3 400.2,482.3 400.2,549.2 472.8,549.2 472.8,616.7 594.8,616.7 594.8,481.8 814.4,481.8 814.4,233.7 742.2,233.7 
	742.2,210.6 814.6,210.6 814.6,143.3 839.1,143.3 839.1,277.4 960.7,277.4 960.7,211 985,211 985,277.5 1033.2,277.5 1033.2,166.1 
	912.5,166.1 912.5,232.8 888.3,232.8 888.3,98.5 815.7,98.5 815.7,8.1 839.2,8.1 839.2,74.9 887.5,74.9 887.5,0 912.1,0 912.1,6.9 
	1033.7,6.9 1033.7,0 1058,0 1058,30.1 912.9,30.1 912.9,142.5 1057.8,142.5 1057.8,300.6 985.8,300.6 985.8,367.9 961,367.9 
	961,301.1 840.1,301.1 840.1,481.5 911.9,481.5 911.9,504.1 693.4,504.1 693.4,617.2 765.6,617.2 765.6,639.4 668.8,639.4 
	668.8,504.8 619.8,504.8 619.8,640 473.2,640 473.2,707.1 376.4,707.1 376.4,684.9 448.2,684.9 448.2,572.8 400.6,572.8 
	400.6,640.1 327.7,640.1 327.7,751.8 521.8,751.8 521.8,685.1 814.6,685.1 814.6,572.3 742.1,572.3 742.1,549.7 960.5,549.7 
	960.5,436.7 888.6,436.7 888.6,346.7 912.1,346.7 912.1,413.2 1033.6,413.2 1033.6,346.7 1058.3,346.7 1058.3,413.5 1130.7,413.5 
	1130.7,436.5 1058.6,436.5 1058.6,503.8 1033.9,503.8 1033.9,437 985.9,437 985.9,548.9 1106.7,548.9 1106.7,482.1 1179.4,482.1 
	1179.4,369 1107.6,369 1107.6,210.8 1179.9,210.8 1179.9,76.1 1277.4,76.1 1277.4,97.8 1205.2,97.8 1205.2,209.9 1472.6,209.9 
	1472.6,166 1400.4,166 1400.4,0 1424.1,0 1424.1,7.3 1497.2,7.3 1497.2,30 1424.8,30 1424.8,142.3 1569.8,142.3 1569.8,165.2 
	1498.4,165.2 1498.4,210.2 1618.8,210.2 1618.8,75.5 1691.6,75.5 1691.6,30.6 1619.8,30.6 1619.8,7.7 1691.8,7.7 1691.8,0 1716.4,0 
	1716.4,6.9 1764.6,6.9 1764.6,0 "/>
<path class="st1" d="M1643.3,414.4v134.5h72.8v67.9h121.8v-44.3h-72V414h72.2v-45.2h-72.3v-22.6h72.4V233.7h-72.3v-22.4h96.6v225
	h-72v112.9h72v90.2h-170.2v-66.9h-72.7v-67.4h-48.9v134.4H1546v-135h-146v-67.4h-48.5v66.8h-97.3v-22h72.3v-68h73v-67.7h73.4v-67.5
	h24.2v89.5h-72v113h193.5v-66.8H1643.3z"/>
<path class="st1" d="M1644,910.2v113h47.9v-67h72.9v-67.8h97.4v89.4h-23.5v-66.7h-48.6v67h-73.4V1079h-24.5v-32.6h-73V911.1h-121.2
	v66.8h-24.4V820.4h71.9v-67.5h24.2v90h-71.6v44.6h193.5V753h24.7v66.8h72.6v23h-72.1v67.4L1644,910.2z"/>
<path class="st1" d="M400,1046.4h-72.6v32.3h-23.7V888.4h23.2v134.9H400V1046.4z"/>
<path class="st1" d="M1034.5,1078.7v-55h72.2v-67.2h24.1V1079h-23.6v-32.2h-48.3v31.9L1034.5,1078.7z"/>
<path class="st1" d="M1570,956.4v122.5h-23.3V956.4H1570z"/>
<path class="st1" d="M838.9,1024.3v54.7h-23.3v-54.7L838.9,1024.3z"/>
<rect x="-1" class="st2" width="1924" height="1082"/>
</svg>
