<svg id="UNIVERSALV" xmlns="http://www.w3.org/2000/svg" viewBox="0 0 1190.55 841.89"><defs><style>.cls-1{fill:#231f20;}.cls-2{fill:#00202f;}.cls-2,.cls-3{opacity:0.75;}.cls-3{fill:#2b162a;}.cls-4{fill:#b64790;}.cls-5{fill:#fff200;}.cls-6{fill:#00a8c3;}</style></defs><rect class="cls-1" x="-163.94" y="-16.28" width="1504.49" height="864.44"/><rect class="cls-2" x="-160.46" y="77.99" width="694.53" height="160.62"/><rect class="cls-2" x="699.78" y="295.92" width="641.58" height="121.54"/><rect class="cls-2" x="731.83" y="486.03" width="607.86" height="91.74"/><rect class="cls-2" x="618.44" y="441.38" width="494.94" height="83.67"/><rect class="cls-3" x="-153.14" y="601.55" width="610.39" height="96.62"/><rect class="cls-3" x="292.26" y="778.76" width="569.5" height="72.02"/><rect class="cls-2" x="127.93" y="796.97" width="207.57" height="54.94"/><rect class="cls-3" x="1077.86" y="417.46" width="262.69" height="80.1"/><rect class="cls-2" x="-157.36" y="295.92" width="857.15" height="185.81"/><rect class="cls-3" x="-79" y="207.98" width="823.39" height="112.68"/><rect class="cls-3" x="340.38" y="-14.04" width="856.81" height="108.05"/><rect class="cls-2" x="363.78" y="71.85" width="325.24" height="73.17"/><rect class="cls-2" x="548.61" y="116.33" width="436.45" height="115.37"/><rect class="cls-3" x="493.77" y="664.25" width="847.37" height="103.2"/><rect class="cls-2" x="695.38" y="733.72" width="646.11" height="114.28"/><rect class="cls-4" x="35.83" y="737.76" width="399.67" height="21.94"/><rect class="cls-4" x="145.2" y="680.9" width="152.78" height="11.79"/><rect class="cls-4" x="129.92" y="709.4" width="53.77" height="2.68"/><rect class="cls-4" x="175.45" y="603.73" width="48.32" height="2.03"/><rect class="cls-4" x="200.03" y="468.81" width="120.54" height="7.86"/><rect class="cls-4" x="141.93" y="445.6" width="80.86" height="5.93"/><rect class="cls-4" x="180.49" y="454.62" width="56.12" height="8.15"/><rect class="cls-4" x="475.13" y="768.77" width="84.35" height="10.5"/><rect class="cls-4" x="450.34" y="583.2" width="66.7" height="10.68"/><rect class="cls-4" x="393.91" y="592.2" width="106.06" height="4.69"/><rect class="cls-4" x="646.82" y="626.25" width="78.99" height="9.85"/><rect class="cls-4" x="676.62" y="633.58" width="78.99" height="4.93"/><rect class="cls-4" x="772.5" y="591.97" width="159.8" height="4.92"/><rect class="cls-4" x="820.38" y="692.16" width="78.76" height="5.62"/><rect class="cls-4" x="895.49" y="656.42" width="52.19" height="5.34"/><rect class="cls-4" x="906.56" y="581.96" width="39.92" height="3.69"/><rect class="cls-4" x="996.51" y="592.35" width="52.78" height="5.09"/><rect class="cls-4" x="696.01" y="774.17" width="73.3" height="2.71"/><rect class="cls-4" x="772.24" y="762.92" width="27.87" height="10.8"/><rect class="cls-4" x="800.25" y="768.33" width="49.9" height="19.74"/><rect class="cls-4" x="788.6" y="782.48" width="13.9" height="2.91"/><rect class="cls-4" x="890.26" y="751.93" width="31.57" height="5.8"/><rect class="cls-4" x="906.08" y="765.72" width="27.87" height="5.4"/><rect class="cls-4" x="-52.21" y="395.62" width="95.89" height="8.14"/><rect class="cls-4" x="-163.37" y="383.84" width="399.64" height="12.06"/><rect class="cls-4" x="269.47" y="358.07" width="123.38" height="3.72"/><rect class="cls-4" x="292.88" y="425.4" width="206.36" height="6.67"/><rect class="cls-4" x="572.27" y="402.36" width="53.72" height="4.58"/><rect class="cls-4" x="547.75" y="445.84" width="146.01" height="5.41"/><rect class="cls-4" x="865.07" y="472.19" width="186.79" height="3.99"/><rect class="cls-4" x="856.92" y="730.74" width="421.34" height="7.8"/><rect class="cls-4" x="842.43" y="286.47" width="13.74" height="19.75"/><rect class="cls-4" x="757.95" y="245.9" width="90.06" height="14.84"/><rect class="cls-4" x="780.79" y="240.7" width="87.64" height="6.5"/><rect class="cls-4" x="875.63" y="196.09" width="67.65" height="10.08"/><rect class="cls-4" x="814.94" y="154.44" width="24.36" height="5.95"/><rect class="cls-4" x="842.35" y="149.21" width="52.88" height="7.54"/><rect class="cls-4" x="850.52" y="140.46" width="64.92" height="8.39"/><rect class="cls-4" x="960.07" y="168.03" width="16.97" height="14.75"/><rect class="cls-4" x="936.89" y="188.79" width="46.8" height="7.61"/><rect class="cls-4" x="942.44" y="197.44" width="242.1" height="4.65"/><rect class="cls-4" x="992.66" y="182.89" width="36.16" height="2.42"/><rect class="cls-4" x="1047.29" y="145.44" width="181.86" height="3.53"/><rect class="cls-4" x="1170.18" y="22.77" width="19.8" height="56.04"/><rect class="cls-4" x="842.47" y="67.55" width="30.55" height="10.92"/><rect class="cls-4" x="452.59" y="76.1" width="158.37" height="8.65"/><rect class="cls-4" x="275.98" y="59.08" width="78.65" height="5.57"/><rect class="cls-4" x="186.66" y="93.27" width="92.59" height="17.13"/><rect class="cls-4" x="-4.1" y="70.65" width="185.64" height="4.81"/><rect class="cls-4" x="54.89" y="205" width="89.36" height="17.79"/><rect class="cls-4" x="331.84" y="249.62" width="50.56" height="7.96"/><rect class="cls-4" x="292.79" y="258.99" width="86.2" height="13.3"/><rect class="cls-4" x="408.11" y="249.07" width="26.94" height="5.12"/><rect class="cls-4" x="418.87" y="261.24" width="34.11" height="5.05"/><rect class="cls-4" x="539.05" y="233.15" width="31.81" height="4.98"/><rect class="cls-5" x="-43.81" y="83.6" width="457.63" height="6.95"/><rect class="cls-5" x="817.12" y="190.38" width="306.52" height="8.05"/><rect class="cls-5" x="725.96" y="123.95" width="397.76" height="3.76"/><rect class="cls-5" x="-110.62" y="156.84" width="530.11" height="6.63"/><rect class="cls-5" x="424.48" y="184.4" width="357.98" height="4.66"/><rect class="cls-5" x="760.47" y="159.39" width="76.63" height="5.89"/><rect class="cls-5" x="839.88" y="214.44" width="129.85" height="7.12"/><rect class="cls-5" x="1035.85" y="220.47" width="305.52" height="3.02"/><rect class="cls-5" x="1181.09" y="235" width="158.77" height="5.99"/><rect class="cls-5" x="510.78" y="294.64" width="830.32" height="6.03"/><rect class="cls-5" x="539.4" y="245.64" width="32.3" height="7.83"/><rect class="cls-5" x="551.45" y="235.42" width="63.66" height="4.49"/><rect class="cls-5" x="-164.86" y="169.8" width="779.92" height="5.19"/><rect class="cls-5" x="221.71" y="34.56" width="154.77" height="7.69"/><rect class="cls-5" x="321.67" y="39.33" width="187.96" height="6.26"/><rect class="cls-5" x="47.22" y="2.59" width="532.64" height="3.87"/><rect class="cls-5" x="-156.01" y="337.91" width="620.83" height="4.31"/><rect class="cls-5" x="-25.7" y="348.72" width="601.25" height="5.43"/><rect class="cls-5" x="234.59" y="317.93" width="203.62" height="6.37"/><rect class="cls-5" x="164.92" y="297.93" width="195.79" height="6.32"/><rect class="cls-5" x="-163.32" y="274.32" width="315.33" height="4.57"/><rect class="cls-5" x="1039.44" y="313.36" width="163.48" height="6.08"/><rect class="cls-5" x="935.75" y="330.17" width="245.75" height="3.74"/><rect class="cls-5" x="819.43" y="354.7" width="354.42" height="6.49"/><rect class="cls-5" x="1068.21" y="371.13" width="101.88" height="6.11"/><rect class="cls-5" x="1113.52" y="408.01" width="100.89" height="4.16"/><rect class="cls-5" x="740.44" y="405.83" width="196.85" height="5.43"/><rect class="cls-5" x="534.68" y="455.3" width="606.65" height="7.35"/><rect class="cls-5" x="1009.53" y="448.91" width="331.99" height="6.4"/><rect class="cls-5" x="904.71" y="430.25" width="112.52" height="11.59"/><rect class="cls-5" x="-66.17" y="500.23" width="615.86" height="6.43"/><rect class="cls-5" x="-99.85" y="446.31" width="253.57" height="5.76"/><rect class="cls-5" x="215.43" y="449.78" width="69.55" height="4.39"/><rect class="cls-5" x="-78.91" y="767.52" width="632.5" height="6.55"/><rect class="cls-5" x="-27.44" y="710.5" width="72.42" height="5.42"/><rect class="cls-5" x="122.18" y="683.08" width="57.73" height="5.31"/><rect class="cls-5" x="291.57" y="687.17" width="226.24" height="6.19"/><rect class="cls-5" x="72.33" y="558.55" width="401.41" height="7.81"/><rect class="cls-5" x="263.95" y="524.83" width="142.06" height="10.72"/><rect class="cls-5" x="-26.3" y="593" width="205.55" height="10.3"/><rect class="cls-5" x="125.5" y="607.1" width="138.14" height="10.75"/><rect class="cls-5" x="212.62" y="599.26" width="319.19" height="3.3"/><rect class="cls-5" x="499.97" y="590.34" width="46.45" height="6.54"/><rect class="cls-5" x="-75.61" y="811.77" width="332.83" height="12.21"/><rect class="cls-5" x="-121.68" y="813.3" width="708.89" height="4.17"/><rect class="cls-5" x="484.33" y="797.34" width="817.57" height="5.93"/><rect class="cls-5" x="691.01" y="813.52" width="91.12" height="7.17"/><rect class="cls-5" x="769.31" y="776.88" width="19.29" height="5.61"/><rect class="cls-5" x="758.17" y="754.83" width="194.83" height="3.37"/><rect class="cls-5" x="959.96" y="762.25" width="49.89" height="7.22"/><rect class="cls-5" x="597.83" y="554.2" width="564.98" height="3.97"/><rect class="cls-5" x="546.28" y="540.45" width="238.12" height="4.32"/><rect class="cls-5" x="1064.15" y="587.14" width="265.37" height="6.14"/><rect class="cls-5" x="913.66" y="563.01" width="227.07" height="10.46"/><rect class="cls-5" x="885.91" y="631.81" width="455.02" height="3.76"/><rect class="cls-5" x="1104.95" y="648.38" width="109.99" height="3.24"/><rect class="cls-5" x="958.71" y="654.49" width="381.36" height="2.28"/><rect class="cls-5" x="624.07" y="688.63" width="356.07" height="6.62"/><rect class="cls-5" x="183.31" y="639.94" width="485.78" height="2.53"/><rect class="cls-6" x="-162.69" y="20.77" width="196.35" height="7.59"/><rect class="cls-6" x="-126.11" y="52.84" width="142.97" height="11.6"/><rect class="cls-6" x="62" y="79.87" width="398.65" height="6.66"/><rect class="cls-6" x="292.84" y="74.49" width="167.81" height="5.38"/><rect class="cls-6" x="135.3" y="55.84" width="157.54" height="18.65"/><rect class="cls-6" x="180.41" y="38.55" width="51.87" height="4.34"/><rect class="cls-6" x="616.69" y="22.19" width="597.61" height="4.15"/><rect class="cls-6" x="700.53" y="9.34" width="127.2" height="5.64"/><rect class="cls-6" x="848.52" y="7.33" width="495.7" height="5.39"/><rect class="cls-6" x="434.32" y="89.7" width="477.73" height="5.52"/><rect class="cls-6" x="842.47" y="48.74" width="59.84" height="13.75"/><rect class="cls-6" x="743.62" y="65.27" width="73.82" height="7.15"/><rect class="cls-6" x="745.79" y="82.67" width="51.34" height="15.51"/><rect class="cls-6" x="641.39" y="61.91" width="72.06" height="10.75"/><rect class="cls-6" x="609.26" y="80.15" width="272.02" height="1.46"/><rect class="cls-6" x="874.75" y="162.42" width="106" height="6.4"/><rect class="cls-6" x="891.12" y="156.92" width="71.15" height="7.69"/><rect class="cls-6" x="963.27" y="153.84" width="143.49" height="5.62"/><rect class="cls-6" x="893.42" y="133.35" width="367.33" height="4.15"/><rect class="cls-6" x="1146" y="167.57" width="81.9" height="9.15"/><rect class="cls-6" x="1082.7" y="163.59" width="74.97" height="7.36"/><rect class="cls-6" x="1028.82" y="185.31" width="312.2" height="5.2"/><rect class="cls-6" x="1112.07" y="191.2" width="95.54" height="9.05"/><rect class="cls-6" x="606.75" y="234.81" width="578.76" height="5.54"/><rect class="cls-6" x="426.41" y="221.5" width="616.73" height="2.34"/><rect class="cls-6" x="433.77" y="141.73" width="245.37" height="20.29"/><rect class="cls-6" x="271.8" y="129.1" width="78.96" height="6.25"/><rect class="cls-6" x="281.34" y="100.77" width="147.15" height="4.78"/><rect class="cls-6" x="-15.69" y="248.36" width="366.3" height="3.63"/><rect class="cls-6" x="183.18" y="224.03" width="29.88" height="44.06"/><rect class="cls-6" x="225.69" y="218.09" width="192.96" height="7.37"/><rect class="cls-6" x="448.9" y="233.03" width="90.14" height="5.09"/><rect class="cls-6" x="576.59" y="240.87" width="71.15" height="3.38"/><rect class="cls-6" x="646.91" y="260.67" width="20.42" height="5.02"/><rect class="cls-6" x="395.49" y="256.8" width="189.05" height="5.45"/><rect class="cls-6" x="144.28" y="277.14" width="290.36" height="3.74"/><rect class="cls-6" x="-98.17" y="297.41" width="146.19" height="6.73"/><rect class="cls-6" x="-103.94" y="433.33" width="205.51" height="8.31"/><rect class="cls-6" x="39.47" y="460.15" width="124.64" height="8.7"/><rect class="cls-6" x="-17.94" y="475.33" width="105.2" height="2.71"/><rect class="cls-6" x="138.19" y="472.47" width="63.76" height="3.53"/><rect class="cls-6" x="207.31" y="443.69" width="157.58" height="6.05"/><rect class="cls-6" x="454.31" y="340.7" width="241.33" height="1.75"/><rect class="cls-6" x="593.73" y="403.62" width="221.36" height="7.13"/><rect class="cls-6" x="720.96" y="439.37" width="155.1" height="9.71"/><rect class="cls-6" x="704.87" y="426.18" width="298.06" height="2.78"/><rect class="cls-6" x="942.15" y="414.42" width="160.05" height="4.23"/><rect class="cls-6" x="898.39" y="382.28" width="153.28" height="6.63"/><rect class="cls-6" x="1149.94" y="395.65" width="87.67" height="4.93"/><rect class="cls-6" x="1095.43" y="410.79" width="93.33" height="14.66"/><rect class="cls-6" x="1137.27" y="429.5" width="51.59" height="10.05"/><rect class="cls-6" x="943.87" y="485.49" width="146.02" height="6.3"/><rect class="cls-6" x="-55.93" y="598.39" width="215.25" height="16.87"/><rect class="cls-6" x="-1.57" y="584.8" width="74.42" height="1.73"/><rect class="cls-6" x="-37.78" y="555" width="122.49" height="5.67"/><rect class="cls-6" x="57.47" y="573.98" width="118.11" height="5.7"/><rect class="cls-6" x="-1.57" y="584.8" width="74.42" height="1.73"/><rect class="cls-6" x="-164.12" y="542.12" width="695.28" height="3.95"/><rect class="cls-6" x="481.04" y="565.44" width="166.21" height="4.26"/><rect class="cls-6" x="312.4" y="677.09" width="298.55" height="13.14"/><rect class="cls-6" x="497.01" y="653.26" width="386.98" height="3.9"/><rect class="cls-6" x="517.04" y="593.88" width="94.39" height="12.16"/><rect class="cls-6" x="634.34" y="599.31" width="132.32" height="5.6"/><rect class="cls-6" x="875.97" y="601.93" width="86.41" height="5.93"/><rect class="cls-6" x="660.26" y="705.17" width="119.25" height="11.16"/><rect class="cls-6" x="652.46" y="680.53" width="239.39" height="5.02"/><rect class="cls-6" x="980.15" y="688.63" width="358.93" height="3.96"/><rect class="cls-6" x="919.12" y="672.68" width="218.68" height="3.88"/><rect class="cls-6" x="1131.81" y="754.23" width="31.98" height="38.03"/><rect class="cls-6" x="993.42" y="817.55" width="190.3" height="10.64"/><rect class="cls-6" x="815.04" y="792.6" width="135.69" height="17.6"/><rect class="cls-6" x="652.38" y="824.39" width="198.99" height="2.93"/><rect class="cls-6" x="646.58" y="778.52" width="133.47" height="13.24"/><rect class="cls-6" x="462.14" y="823.59" width="149.84" height="8.75"/><rect class="cls-6" x="592.15" y="810.62" width="126.89" height="10.01"/><rect class="cls-6" x="649.17" y="831.66" width="206.61" height="2.59"/><rect class="cls-6" x="260.16" y="784.6" width="323.11" height="7.49"/><rect class="cls-6" x="495.11" y="759.3" width="88.47" height="11.57"/><rect class="cls-6" x="318.89" y="592.86" width="102.78" height="2.53"/><rect class="cls-6" x="-159.32" y="679.42" width="166.23" height="7.54"/><rect class="cls-6" x="60.66" y="711.71" width="68.93" height="7.15"/><rect class="cls-6" x="180.96" y="713.04" width="298.42" height="5.45"/><rect class="cls-6" x="-131.15" y="639.82" width="306.08" height="4.41"/><rect class="cls-6" x="801.89" y="343.35" width="147.05" height="6.76"/><rect class="cls-6" x="815.23" y="264.09" width="380.14" height="2.46"/></svg>