<svg xmlns="http://www.w3.org/2000/svg" viewBox="0 0 1190.55 841.89"><defs><style>.cls-1{fill:#231f20;}.cls-2{fill:#0b1321;}.cls-3,.cls-7{fill:#0b2228;}.cls-4{fill:#8cc4da;}.cls-5{fill:#65b5d0;}.cls-6{fill:#2ba8c8;}.cls-7{opacity:0.7;}</style></defs><g id="WEB_UX" data-name="WEB/UX"><rect class="cls-1" x="-182.61" y="-21.62" width="1536.44" height="882.8"/><rect class="cls-2" x="-179.06" y="74.66" width="709.28" height="164.03"/><rect class="cls-2" x="699.45" y="297.21" width="655.2" height="124.12"/><rect class="cls-2" x="732.17" y="491.36" width="620.77" height="93.69"/><rect class="cls-2" x="616.38" y="445.75" width="505.45" height="85.44"/><rect class="cls-3" x="-171.58" y="609.33" width="623.35" height="98.67"/><rect class="cls-3" x="288.59" y="784.98" width="581.59" height="73.55"/><rect class="cls-2" x="113.68" y="801.81" width="211.98" height="56.1"/><rect class="cls-3" x="1085.55" y="421.33" width="268.27" height="81.8"/><rect class="cls-2" x="-175.9" y="297.21" width="875.35" height="189.76"/><rect class="cls-3" x="-95.87" y="207.4" width="840.88" height="115.07"/><rect class="cls-3" x="332.42" y="-19.33" width="875" height="110.34"/><rect class="cls-2" x="356.31" y="68.38" width="332.15" height="74.73"/><rect class="cls-2" x="545.07" y="113.81" width="445.72" height="117.82"/><rect class="cls-3" x="489.06" y="673.36" width="865.36" height="105.4"/><rect class="cls-2" x="694.95" y="744.31" width="659.83" height="116.71"/><rect class="cls-4" x="21.39" y="748.43" width="408.15" height="22.41"/><rect class="cls-4" x="133.09" y="690.37" width="156.02" height="12.04"/><rect class="cls-4" x="117.49" y="719.47" width="54.91" height="2.74"/><rect class="cls-4" x="163.98" y="611.56" width="49.34" height="2.07"/><rect class="cls-4" x="189.08" y="473.77" width="123.1" height="8.03"/><rect class="cls-4" x="129.75" y="450.07" width="82.58" height="6.05"/><rect class="cls-4" x="169.12" y="459.28" width="57.31" height="8.32"/><rect class="cls-4" x="470.02" y="780.1" width="86.14" height="10.72"/><rect class="cls-4" x="444.71" y="590.59" width="68.12" height="10.91"/><rect class="cls-4" x="387.08" y="599.78" width="108.31" height="4.78"/><rect class="cls-4" x="645.36" y="634.55" width="80.67" height="10.06"/><rect class="cls-4" x="675.79" y="642.04" width="80.67" height="5.03"/><rect class="cls-4" x="773.71" y="599.55" width="163.19" height="5.03"/><rect class="cls-4" x="822.61" y="701.86" width="80.43" height="5.74"/><rect class="cls-4" x="899.3" y="665.36" width="53.3" height="5.45"/><rect class="cls-4" x="910.61" y="589.32" width="40.77" height="3.76"/><rect class="cls-4" x="1002.47" y="599.94" width="53.9" height="5.2"/><rect class="cls-4" x="695.6" y="785.62" width="74.86" height="2.76"/><rect class="cls-4" x="773.44" y="774.12" width="28.47" height="11.03"/><rect class="cls-4" x="802.05" y="779.65" width="50.96" height="20.15"/><rect class="cls-4" x="790.15" y="794.1" width="14.2" height="2.97"/><rect class="cls-4" x="893.97" y="762.9" width="32.24" height="5.92"/><rect class="cls-4" x="910.12" y="776.98" width="28.47" height="5.51"/><rect class="cls-4" x="-68.51" y="399.03" width="97.92" height="8.32"/><rect class="cls-4" x="-182.03" y="387" width="408.13" height="12.32"/><rect class="cls-4" x="260" y="360.68" width="126" height="3.8"/><rect class="cls-4" x="283.91" y="429.44" width="210.74" height="6.82"/><rect class="cls-4" x="569.23" y="405.91" width="54.86" height="4.67"/><rect class="cls-4" x="544.19" y="450.31" width="149.11" height="5.53"/><rect class="cls-4" x="868.24" y="477.23" width="190.76" height="4.07"/><rect class="cls-4" x="859.92" y="741.26" width="430.29" height="7.97"/><rect class="cls-4" x="845.12" y="287.56" width="14.03" height="20.17"/><rect class="cls-4" x="758.85" y="246.13" width="91.97" height="15.15"/><rect class="cls-4" x="782.18" y="240.82" width="89.5" height="6.64"/><rect class="cls-4" x="879.03" y="195.26" width="69.08" height="10.29"/><rect class="cls-4" x="817.05" y="152.73" width="24.88" height="6.07"/><rect class="cls-4" x="845.04" y="147.39" width="54" height="7.7"/><rect class="cls-4" x="853.39" y="138.45" width="66.3" height="8.57"/><rect class="cls-4" x="965.26" y="166.61" width="17.33" height="15.06"/><rect class="cls-4" x="941.58" y="187.8" width="47.79" height="7.77"/><rect class="cls-4" x="947.26" y="196.64" width="247.24" height="4.74"/><rect class="cls-4" x="998.54" y="181.78" width="36.93" height="2.47"/><rect class="cls-4" x="1054.33" y="143.53" width="185.73" height="3.61"/><rect class="cls-4" x="1179.83" y="18.27" width="20.22" height="57.23"/><rect class="cls-4" x="845.16" y="63.99" width="31.19" height="11.15"/><rect class="cls-4" x="447.01" y="72.72" width="161.74" height="8.83"/><rect class="cls-4" x="266.65" y="55.35" width="80.32" height="5.69"/><rect class="cls-4" x="175.43" y="90.26" width="94.56" height="17.49"/><rect class="cls-4" x="-19.38" y="67.15" width="189.58" height="4.91"/><rect class="cls-4" x="40.86" y="204.36" width="91.25" height="18.17"/><rect class="cls-4" x="323.7" y="249.93" width="51.63" height="8.13"/><rect class="cls-4" x="283.81" y="259.5" width="88.03" height="13.58"/><rect class="cls-4" x="401.58" y="249.36" width="27.51" height="5.22"/><rect class="cls-4" x="412.57" y="261.79" width="34.84" height="5.15"/><rect class="cls-4" x="535.3" y="233.1" width="32.49" height="5.08"/><rect class="cls-5" x="-59.93" y="80.38" width="467.34" height="7.1"/><rect class="cls-5" x="819.27" y="189.43" width="313.03" height="8.22"/><rect class="cls-5" x="726.18" y="121.59" width="406.21" height="3.84"/><rect class="cls-5" x="-128.17" y="155.18" width="541.37" height="6.77"/><rect class="cls-5" x="418.3" y="183.32" width="365.58" height="4.76"/><rect class="cls-5" x="761.43" y="157.78" width="78.26" height="6.02"/><rect class="cls-5" x="842.52" y="214" width="132.6" height="7.27"/><rect class="cls-5" x="1042.65" y="220.16" width="312.01" height="3.09"/><rect class="cls-5" x="506.43" y="295.91" width="847.95" height="6.15"/><rect class="cls-5" x="535.66" y="245.86" width="32.99" height="7.99"/><rect class="cls-5" x="547.97" y="235.42" width="65.01" height="4.59"/><rect class="cls-5" x="-183.55" y="168.41" width="796.48" height="5.3"/><rect class="cls-5" x="211.23" y="30.31" width="158.05" height="7.85"/><rect class="cls-5" x="313.31" y="35.17" width="191.95" height="6.39"/><rect class="cls-5" x="33.03" y="-2.35" width="543.95" height="3.95"/><rect class="cls-5" x="-174.51" y="340.1" width="634.01" height="4.4"/><rect class="cls-5" x="-41.44" y="351.13" width="614.02" height="5.54"/><rect class="cls-5" x="224.38" y="319.69" width="207.95" height="6.51"/><rect class="cls-5" x="153.23" y="299.27" width="199.95" height="6.45"/><rect class="cls-5" x="-181.98" y="275.15" width="322.02" height="4.66"/><rect class="cls-5" x="1046.31" y="315.03" width="166.95" height="6.21"/><rect class="cls-5" x="940.42" y="332.18" width="250.96" height="3.82"/><rect class="cls-5" x="821.63" y="357.24" width="361.94" height="6.63"/><rect class="cls-5" x="1075.7" y="374.02" width="104.04" height="6.24"/><rect class="cls-5" x="1121.97" y="411.68" width="103.03" height="4.25"/><rect class="cls-5" x="740.96" y="409.45" width="201.03" height="5.54"/><rect class="cls-5" x="530.84" y="459.97" width="619.54" height="7.5"/><rect class="cls-5" x="1015.77" y="453.45" width="339.04" height="6.54"/><rect class="cls-5" x="908.72" y="434.4" width="114.91" height="11.83"/><rect class="cls-5" x="-82.76" y="505.86" width="628.93" height="6.56"/><rect class="cls-5" x="-117.17" y="450.8" width="258.95" height="5.88"/><rect class="cls-5" x="204.81" y="454.34" width="71.03" height="4.48"/><rect class="cls-5" x="-95.78" y="778.82" width="645.93" height="6.69"/><rect class="cls-5" x="-43.21" y="720.59" width="73.96" height="5.54"/><rect class="cls-5" x="109.58" y="692.6" width="58.96" height="5.43"/><rect class="cls-5" x="282.56" y="696.77" width="231.04" height="6.32"/><rect class="cls-5" x="58.67" y="565.42" width="409.93" height="7.97"/><rect class="cls-5" x="254.36" y="530.98" width="145.07" height="10.95"/><rect class="cls-5" x="-42.05" y="600.6" width="209.92" height="10.52"/><rect class="cls-5" x="112.97" y="615" width="141.08" height="10.98"/><rect class="cls-5" x="201.94" y="606.99" width="325.97" height="3.37"/><rect class="cls-5" x="495.4" y="597.88" width="47.44" height="6.68"/><rect class="cls-5" x="-92.41" y="824.02" width="339.9" height="12.47"/><rect class="cls-5" x="-139.46" y="825.57" width="723.95" height="4.25"/><rect class="cls-5" x="479.42" y="809.28" width="834.93" height="6.06"/><rect class="cls-5" x="690.49" y="825.8" width="93.05" height="7.32"/><rect class="cls-5" x="770.46" y="788.38" width="19.7" height="5.73"/><rect class="cls-5" x="759.07" y="765.86" width="198.97" height="3.44"/><rect class="cls-5" x="965.15" y="773.44" width="50.94" height="7.37"/><rect class="cls-5" x="595.33" y="560.98" width="576.98" height="4.05"/><rect class="cls-5" x="542.68" y="546.94" width="243.17" height="4.42"/><rect class="cls-5" x="1071.55" y="594.61" width="271.01" height="6.28"/><rect class="cls-5" x="917.87" y="569.97" width="231.89" height="10.68"/><rect class="cls-5" x="889.53" y="640.24" width="464.68" height="3.84"/><rect class="cls-5" x="1113.22" y="657.16" width="112.32" height="3.31"/><rect class="cls-5" x="963.88" y="663.39" width="389.46" height="2.32"/><rect class="cls-5" x="622.13" y="698.26" width="363.63" height="6.76"/><rect class="cls-5" x="172.01" y="648.53" width="496.09" height="2.58"/><rect class="cls-6" x="-181.34" y="16.22" width="200.52" height="7.75"/><rect class="cls-6" x="-143.98" y="48.97" width="146" height="11.84"/><rect class="cls-6" x="48.12" y="76.58" width="407.11" height="6.8"/><rect class="cls-6" x="283.86" y="71.08" width="171.38" height="5.49"/><rect class="cls-6" x="122.97" y="52.04" width="160.89" height="19.05"/><rect class="cls-6" x="169.05" y="34.38" width="52.97" height="4.43"/><rect class="cls-6" x="614.59" y="17.67" width="610.3" height="4.23"/><rect class="cls-6" x="700.21" y="4.55" width="129.9" height="5.76"/><rect class="cls-6" x="851.34" y="2.49" width="502.37" height="5.5"/><rect class="cls-6" x="428.34" y="86.61" width="487.88" height="5.63"/><rect class="cls-6" x="845.17" y="44.79" width="61.11" height="14.05"/><rect class="cls-6" x="744.21" y="61.66" width="75.39" height="7.3"/><rect class="cls-6" x="746.44" y="79.43" width="52.43" height="15.84"/><rect class="cls-6" x="639.81" y="58.23" width="73.59" height="10.98"/><rect class="cls-6" x="607" y="76.86" width="277.8" height="1.49"/><rect class="cls-6" x="878.13" y="160.88" width="108.25" height="6.54"/><rect class="cls-6" x="894.84" y="155.26" width="72.67" height="7.85"/><rect class="cls-6" x="968.53" y="152.11" width="146.53" height="5.74"/><rect class="cls-6" x="897.19" y="131.19" width="375.13" height="4.24"/><rect class="cls-6" x="1155.14" y="166.13" width="83.64" height="9.34"/><rect class="cls-6" x="1090.49" y="162.07" width="76.56" height="7.52"/><rect class="cls-6" x="1035.48" y="184.25" width="318.83" height="5.31"/><rect class="cls-6" x="1120.49" y="190.26" width="97.57" height="9.24"/><rect class="cls-6" x="604.43" y="234.8" width="591.04" height="5.66"/><rect class="cls-6" x="420.27" y="221.21" width="629.82" height="2.39"/><rect class="cls-6" x="427.79" y="139.74" width="250.58" height="20.72"/><rect class="cls-6" x="262.38" y="126.84" width="80.64" height="6.38"/><rect class="cls-6" x="272.12" y="97.92" width="150.27" height="4.88"/><rect class="cls-6" x="-31.21" y="248.64" width="374.08" height="3.71"/><rect class="cls-6" x="171.88" y="223.79" width="30.52" height="44.99"/><rect class="cls-6" x="215.28" y="217.73" width="197.06" height="7.52"/><rect class="cls-6" x="443.24" y="232.99" width="92.06" height="5.2"/><rect class="cls-6" x="573.64" y="241" width="72.66" height="3.45"/><rect class="cls-6" x="645.46" y="261.22" width="20.86" height="5.13"/><rect class="cls-6" x="388.69" y="257.26" width="193.06" height="5.56"/><rect class="cls-6" x="132.15" y="278.03" width="296.52" height="3.82"/><rect class="cls-6" x="-115.45" y="298.73" width="149.29" height="6.88"/><rect class="cls-6" x="-121.34" y="437.54" width="209.87" height="8.49"/><rect class="cls-6" x="25.12" y="464.93" width="127.29" height="8.88"/><rect class="cls-6" x="-33.52" y="480.43" width="107.43" height="2.77"/><rect class="cls-6" x="125.93" y="477.51" width="65.11" height="3.6"/><rect class="cls-6" x="196.51" y="448.12" width="160.93" height="6.18"/><rect class="cls-6" x="448.76" y="342.95" width="246.46" height="1.79"/><rect class="cls-6" x="591.14" y="407.2" width="226.06" height="7.28"/><rect class="cls-6" x="721.08" y="443.7" width="158.39" height="9.92"/><rect class="cls-6" x="704.64" y="430.24" width="304.39" height="2.84"/><rect class="cls-6" x="946.97" y="418.23" width="163.45" height="4.32"/><rect class="cls-6" x="902.27" y="385.4" width="156.54" height="6.77"/><rect class="cls-6" x="1159.16" y="399.06" width="89.53" height="5.03"/><rect class="cls-6" x="1103.5" y="414.52" width="95.31" height="14.97"/><rect class="cls-6" x="1146.23" y="433.62" width="52.69" height="10.27"/><rect class="cls-6" x="948.71" y="490.8" width="149.12" height="6.43"/><rect class="cls-6" x="-72.31" y="606.1" width="219.82" height="17.23"/><rect class="cls-6" x="-16.79" y="592.23" width="76" height="1.77"/><rect class="cls-6" x="-53.78" y="561.79" width="125.09" height="5.79"/><rect class="cls-6" x="43.5" y="581.18" width="120.62" height="5.82"/><rect class="cls-6" x="-16.79" y="592.23" width="76" height="1.77"/><rect class="cls-6" x="-182.8" y="548.64" width="710.04" height="4.04"/><rect class="cls-6" x="476.06" y="572.46" width="169.73" height="4.35"/><rect class="cls-6" x="303.84" y="686.47" width="304.89" height="13.42"/><rect class="cls-6" x="492.37" y="662.14" width="395.2" height="3.98"/><rect class="cls-6" x="512.83" y="601.5" width="96.4" height="12.42"/><rect class="cls-6" x="632.62" y="607.05" width="135.13" height="5.72"/><rect class="cls-6" x="879.38" y="609.72" width="88.24" height="6.06"/><rect class="cls-6" x="659.08" y="715.15" width="121.78" height="11.4"/><rect class="cls-6" x="651.12" y="689.99" width="244.47" height="5.12"/><rect class="cls-6" x="985.76" y="698.26" width="366.55" height="4.04"/><rect class="cls-6" x="923.44" y="681.97" width="223.32" height="3.96"/><rect class="cls-6" x="1140.64" y="765.25" width="32.66" height="38.84"/><rect class="cls-6" x="999.32" y="829.91" width="194.34" height="10.87"/><rect class="cls-6" x="817.15" y="804.44" width="138.57" height="17.97"/><rect class="cls-6" x="651.03" y="836.91" width="203.22" height="2.99"/><rect class="cls-6" x="645.11" y="790.06" width="136.31" height="13.52"/><rect class="cls-6" x="456.76" y="836.08" width="153.02" height="8.94"/><rect class="cls-6" x="589.53" y="822.84" width="129.58" height="10.22"/><rect class="cls-6" x="250.49" y="796.27" width="329.97" height="7.65"/><rect class="cls-6" x="490.42" y="770.43" width="90.35" height="11.82"/><rect class="cls-6" x="310.47" y="600.45" width="104.97" height="2.59"/><rect class="cls-6" x="46.75" y="721.83" width="70.39" height="7.3"/><rect class="cls-6" x="169.61" y="723.19" width="304.75" height="5.56"/><rect class="cls-6" x="-149.13" y="648.41" width="312.58" height="4.5"/><rect class="cls-6" x="803.72" y="345.64" width="150.18" height="6.9"/><rect class="cls-6" x="817.35" y="264.71" width="388.21" height="2.51"/><rect class="cls-7" x="-182.61" y="-21.62" width="1537.39" height="882.64"/></g></svg>