<svg id="Layer_1" data-name="Layer 1" xmlns="http://www.w3.org/2000/svg" xmlns:xlink="http://www.w3.org/1999/xlink" viewBox="0 0 1920 1080"><defs><style>.cls-1,.cls-4{fill:none;}.cls-2,.cls-5{fill:#231f20;}.cls-3{clip-path:url(#clip-path);}.cls-4{stroke:#96daea;stroke-miterlimit:10;stroke-width:10px;}.cls-5{opacity:0.7;}</style><clipPath id="clip-path"><rect class="cls-1" y="-5" width="1920" height="1079"/></clipPath></defs><rect class="cls-2" width="1920" height="1079"/><g class="cls-3"><path class="cls-4" d="M881.9,534.16v96.72H934l-.27-.28v96.89h52.1v48.09h-104V823H830.08V727.11h51.4V679.56H830.33v47.79H675.19V824h51.16V872l.28-.25H519V920.3l.27-.25h-104v48.49l.27-.25-51.8-.07V920.83H312.21V968H364q-.28,24.42-.54,48.8l.27-.28H208.34v47.86H156.72v-47.88H104.3l.28.26V872.14H1.28v-48H104.59V775.35l-.28.26h52.07l-.27-.27v48.49h155.8l-.26-.25v47.82h156.1V823.46h50.92V727H467.45V678.85l-.27.24H778.23V630.63h51.4V583.08H778.49v47.78H674.4v-48.5H622.71l.27.25V534.12l-.27.28,259.46,0ZM156.71,872.29V967.9h50.76V872.29ZM571.39,775h50.9V727.8h-50.9Z"/><path class="cls-4" d="M1763.24,1064.81V1161H1660v96.74h-52.28l.29.25v-48.75h-52.19v-48H1503.9v-48H1400.38V1065h-51.85v-47.73H1244.65v47.77h-51.71v48.19l.28-.26-52.06.28V1065H985.62V968.53H933.77V920.06h103.7V823.57h52.09v48.25h51.86v48.71h-51.27v95.7h51.33V968.14h103.37V920.05h52.39v48H1400V919.86h-51.79V824.13h-51.61v47.93h-51.73V823.8H1193V775.33h207.63v48.24h103.69q-.16,48.21-.32,96.44h-50.94v144.46h51.17c0-8.1,0-15.77,0-23.44q-.24-60.62-.49-121.23l52.44.26v48.78h51.14v48h-50.56v47.57H1660V968.54h51.75l-.29-.25v96.78h52.11Z"/><path class="cls-4" d="M311.64,1113.24v-48h52.12V1016.5l-.27.28H415.6V968.29l-.27.25h104V920.05l-.27.25H623.18v96.59H674.1v96.48H570.87v48.13l.26-.25-52.1.25q0-48.36,0-96.71h51.4v-47.54H519.27V1065H416v48.42h51.44v48H416.09v48h51.36l-.27,48.48.27-.25h-104l.29.25v-48H260.61v-97h51.28v47.83H363v-47.59Z"/><path class="cls-4" d="M363.17,4.24V340.8H1.48V4.24Zm-181,49.81c-39.18,0-78.36.18-117.54-.15-7.71-.07-9.87,2.05-9.84,9.19q.38,109.36,0,218.73c0,7.17,2.2,9.19,9.88,9.16q117.53-.36,235.07,0c7.7,0,9.87-2.05,9.85-9.19q-.39-109.37,0-218.73c0-7.17-2.2-9.24-9.88-9.17C260.52,54.23,221.34,54.05,182.16,54.05Z"/><path class="cls-4" d="M1556.74,4H1918.4V340.55H1556.74Zm180.2,286.83c39.49,0,79-.15,118.46.13,7.17,0,9.51-1.69,9.49-8.65q-.41-109.8,0-219.59c0-6.67-1.82-8.85-9.3-8.83q-118,.36-236,0c-7.17,0-9.51,1.69-9.49,8.65q.39,109.79,0,219.59c0,6.67,1.81,8.89,9.29,8.83C1658.58,290.66,1697.76,290.84,1736.94,290.84Z"/><path class="cls-4" d="M622.71,52h51.8V4.1h51.64V51.34H830V4.27h207.48V99.7h51.67V4.15h51.64V52h52.45l-.28-.26v96.14h-51.39v48.52h-52.26l.26.28V148.9h-52.11v47.79l.27-.28H986V100.14H934.16V52.45H882.24V99.93H622.71l.27.28V51.72Z"/><path class="cls-4" d="M1867.19,871.77h-51.73V823.93h-51.61V775.3h-52.42l.27.27V727.79h-52.11v47.78l.27-.24-52.12.23V630.62h52.44v47.89H1711v-95.9H1607.76q.12-24.24.25-48.49l-.26.25h51.35V485.88h-51.35l.26.25V437.64l-.26.28,103.93,0-.28-.26V534h51.71V727.38h52.25l-.28-.26v48.14h103.3v48h-51.46V872Z"/><path class="cls-4" d="M1348.53,293.19h51.64v96.49h52.31l-.27-.28v96.73H1608l-.26-.25v48.49l.26-.25h-51.85v48.49h-52.39v-48H1400.33V581.8h-51.54V292.92Z"/><path class="cls-4" d="M1141.42,534.1H1038.27V293.19h51.3l-.26-.27v48.49h52.11l-.27-.25V389h52.11V341.16l-.27.27h52.11l-.26-.27V390h51.41v48H1193v48.16l.27-.25-51.8-.06v-47.4h-51.6v47.15h51.83q-.29,24.41-.54,48.79Z"/><path class="cls-4" d="M726.67,437.62H675v48.24h-52.3l.27.27V437.41H519.29V292.92l-.27.27H570.7V389h52.15V245.25h51.47v96.18h52.35l-.27-.27v96.73Z"/><path class="cls-4" d="M830.74,341.68V245.25H727.22v-96.4H933.11v47.46H882.4V341.44h-52Z"/><path class="cls-4" d="M1711.68,437.94v-47.8H1867v95.7h51.25V630.16h-50.88V534.55h-51.93V486.22h-51.61V437.68H1711.4Z"/><path class="cls-4" d="M622.71,99.93l-.05,48.5.28-.26H519.41V196H416V52.52h51.19V99.67h51.62V52h52.37l-.26-.27v48.49H623Z"/><path class="cls-4" d="M415.63,679.09V631H311.94V582.36l-.29.25h52.11V534.12l-.27.25h52.37v48.24H623l-.27-.25V631H467.18v48.07l.27-.24H415.33Z"/><path class="cls-4" d="M934,630.88V583.12h155.08v96h52.3l-.27-.27v47.68H1037.38V678.84H985.49V630.6H933.77Z"/><path class="cls-4" d="M104.5,630.57H1.46V582.78H52.75V534.15l-.28.25h51.76V438.26h51.64v47.67H207.6V534h-51V582H104.22v48.79Z"/><path class="cls-4" d="M311.94,727.33V679.09H415.63l-.3-.24V823.57H311.65l.26.25V775.33l-.26.24H363V727.09H311.65Z"/><path class="cls-4" d="M1193.24,52V4.22h206.67V99.63H1349V51.75H1193Z"/><path class="cls-4" d="M1815.36,1209.78v-96.33H1867v-48.1h51.22v144.17H1815.08Z"/><path class="cls-4" d="M363.78,486.13l0-48.47-.28.26h51.63V293.19h52.29l-.27-.27v193H363.49Z"/><path class="cls-4" d="M155.83,679.46H259.49v47.87h52.45l-.29-.24v48.48l.26-.24H156.11l.27.27q-.15-48.21-.29-96.43Z"/><path class="cls-4" d="M1245.1,582.34H1141.42V534.1l-.27.27h52.11V485.88l-.27.25h103.18v48.44h-51.33v48Z"/><path class="cls-4" d="M1296.72,148.48h51.67v48.05H1400v47.94h-51.5v48.72l.26-.27h-52.11l.3.25,0-145Z"/><path class="cls-4" d="M1452.48,389.68V197.23H1504V389.65l.29-.25h-52.11Z"/><path class="cls-4" d="M1141.42,679.12V631H1245.1v-48.7l-.26.27h51.25v96.24H1141.15Z"/><path class="cls-4" d="M1089.57,293.19q-.15-24.07-.28-48.18l-.27.28,104.22-.31-.28-.26,0,96.71.27-.27h-52.11l.27.25V292.92h-52.11Z"/><path class="cls-4" d="M104.3,1016.48v47.79H1.3v-95.4H52.19v47.87h52.38Z"/><path class="cls-4" d="M1659.59,872.08h103.12v96.21h-51.3l.29.25V919.86h-51.84V871.81Z"/><path class="cls-4" d="M1504,389.65h103.72v48.27l.26-.28H1504.32V389.4Z"/><path class="cls-4" d="M985.36,245.27v95.4H934.47v-95.4Z"/><path class="cls-4" d="M778.24,341.43l52.49.24-.29-.24c0,31.74,0,63.47,0,96.19H778.24l.27.27V341.16Z"/><path class="cls-4" d="M1815.36,727.38V679.62h102.93v47.5H1815.08Z"/><path class="cls-4" d="M104.59,775.35H1.46V727.82H104.31v47.79Z"/><path class="cls-4" d="M1866.92,872h51.33v95.78h-51v-96Z"/><path class="cls-4" d="M1659.56,823.57l0,48.51.27-.27-52.1.25q0-24.24,0-48.48l52.12.24Z"/><path class="cls-4" d="M1245.1,341.43V293.17H1297l-.3-.25v48.24h-51.84Z"/><path class="cls-4" d="M1711.43,775.3v48.27h-51.87l.3.25V775.33l-.27.24h52.11Z"/><path class="cls-4" d="M726.67,341.43V293.69h51.57v47.74l.27-.27H726.4Z"/><path class="cls-4" d="M1763.52,1065.07v-47.74h51.08v47.48h-51.36Z"/><path class="cls-4" d="M1.19,437.25V390.19H51.93v47.06Z"/><path class="cls-4" d="M467.45,293.19V245.45H519v47.74l.27-.27H467.18Z"/><path class="cls-4" d="M104.22,630.83h51.63c0,16.37,0,32.49,0,48.62l.25-.28H104.5V630.57Z"/><path class="cls-4" d="M363.81,437.66H312.5V390.13h51v47.79Z"/><path class="cls-4" d="M1193.24,245V197.24h51.08v47.47H1193Z"/><path class="cls-4" d="M934.39,437.16V390H985v47.18Z"/><path class="cls-4" d="M1089.31,196.41q-.13,24.43-.28,48.87l.26-.27h-51.56V196.41l-.27.28h52.11Z"/><path class="cls-4" d="M778.24,437.62v47.74H726.67V437.62l-.27.27h52.11Z"/><path class="cls-4" d="M622.66,148.43H674V196h-51V148.17Z"/><path class="cls-4" d="M1297,148.22h-51.31V100.69h51v47.79Z"/><path class="cls-4" d="M1503.72,52.46V99.62h-50.63V52.46Z"/><path class="cls-4" d="M311.94,582.36H260.63v-48h51.28l-.26-.28v48.49Z"/><path class="cls-4" d="M882.17,534.42V486.68h51.08v47.48H881.9Z"/><path class="cls-4" d="M622.71,485.86V534.4l.27-.28H571.69v-48H623Z"/><path class="cls-4" d="M311.91,534.4V486.13h51.87l-.29-.25v48.49l.27-.25H311.65Z"/><path class="cls-4" d="M52.75,534.15H1.44V486.62h51q0,24,0,47.78Z"/><path class="cls-4" d="M571.13,52V4.25h51.58V52l.27-.27H570.87Z"/><path class="cls-4" d="M985.63,1113h155.78v96h-51.76V1162H1038v47.2H881.88V1258l.28-.26H830.43v-47.84H778.82V1161.2h-52.4l.28.26v-48h51.55v-48.66H881.66v96h104Z"/><path class="cls-4" d="M934,968.3v48H778.5V1065H727.18V968.3Z"/><path class="cls-4" d="M726.35,872H829.47v47.53H726.63V871.78Z"/><path class="cls-4" d="M934,871.82v48.47H882.75V871.82Z"/><path class="cls-4" d="M985.88,823.57v48.48h-52.1V823.57Z"/><path class="cls-4" d="M1037.72,823.81H985.63V775.33h52.09Z"/><path class="cls-4" d="M1348.78,1064.78v48.47h-51.27v-48.47Z"/><path class="cls-4" d="M1556.16,630.61v96.15H1452.67v48.81h-52.29v-145Z"/><ellipse class="cls-4" cx="1167.21" cy="847.81" rx="36.84" ry="34.28"/><path class="cls-4" d="M1141.41,823.81h-52.1V776.09h52.1Z"/><ellipse class="cls-4" cx="1581.96" cy="606.61" rx="36.84" ry="34.28"/><path class="cls-4" d="M985.88,1064.78v48.47H934.6v-48.47Z"/><path class="cls-4" d="M1555.91,920.29V871.82H1608v48.47Z"/><path class="cls-4" d="M1608,775.33v48.48H1504.07V775.33Z"/><path class="cls-4" d="M1193,871.82h52.1v48.47H1193Z"/><path class="cls-4" d="M259.23,244.4H105V100.82H259.23Z"/><path class="cls-4" d="M1660.41,100.5h154.32V244.09H1660.41Z"/></g><rect class="cls-5" x="-2" y="-5" width="1924" height="1079"/></svg>