<svg xmlns="http://www.w3.org/2000/svg" viewBox="0 0 1409.83 1312.56"><defs><style>.cls-1{fill:none;stroke:#96daea;stroke-miterlimit:10;stroke-width:10px;}</style></defs><g id="Layer_2" data-name="Layer 2"><g id="Web_and_UX" data-name="Web and UX"><path class="cls-1" d="M482.1,1306.25c-19.47-.2-57.72-.87-77.5-.87l-.11-68.37c-37.49,0-21,.52-58.8.52v-70.39h37.59l-.19-.19v34.89h38.05V1167l-.2.18h38.19v34.66h37.71v-70.07l-.19.18h37.5v-35.4h-37.5l.21.18v-35.1H459.05v-35.22H421.44V991.15H383.3V955.61l-.21.18h37.5v-35.4h-37.5l.19.18-.18-35.4h38V850l-.2.18H459.2V955.94h75.53v69.77H648.36V991.35H724v34.87H685.69v35.33h-75v34.63H723.79v-70.13H762V921h37.51v140.46l.2-.18h-37.5v35.4h37.5l-.2-.18v35.4l.2-.18H761.48v35.41H723.79v-34.92H648.64V1167H724v35.51h38v35.1h37.69l-.22-.18v34.88h-75.4v-34.6H686.32v-34.92h-38v34.45H573v35.33h36.91v34.88q-22.35,0-44.48-.21M610,1167.46H535.12v34.48H610Zm-75.71,70.45H497.27v34.48h37.05Z"/><path class="cls-1" d="M1026.79,1237.37H913.25v-35.2l-.22.18h37.5V1167H913l.22.18V1131.7H837.33l.19.2v-35.4h-38l.2.18v-35.4l-.2.18h75.94v-35.39l-.2.19h38l-.2-.19v70.64h38l-.2-.19v34.83h76.06v-34.87h37.14v-35.31h-36.9v-35.3h37.64V990.8h37.1V955.5H989.3V885.78h37.61v34.31h38V885.64h37.69v34.93h75.64l-.21-.18v35.18h-37.42v34.9H1253.7V955.9h37.48V920.56h-37V885.38h75.42l-.2-.19v35.1h75.38v176.19h-37.5l.2.2v-35.53h-38.06v-35.08h37.53V991.36h-37.35v34.88h-76.11v141h-75.55v34.5H1140v-34.28h-113.4v70.13Zm76.06-211v104.92h112.77V1026.41Z"/><path class="cls-1" d="M648,392.08V462.7h38.07l-.2-.2v70.74h38v35.11H648V603H610.2V533h37.53V498.25H610.39v34.89H497.11v70.53h37.35v35.11l.21-.19H383.09V674l.19-.18h-75.9v35.4l.2-.18-37.82,0V674.4H232.09v34.43h37.83l-.39,35.63.2-.2H156.25V779.2H118.56v-35H80.28l.21.19V638.86H5.07V603.8H80.5V568.19l-.21.18h38l-.19-.2v35.4H231.87l-.19-.18v34.92h114v-35h37.17V532.86h-37.4V497.72l-.19.19H572.35V462.52h37.53V427.8H572.53v34.89h-76V427.28H458.8l.19.18v-35.4l-.19.2H648.24ZM118.55,639v69.8h37.06V639Zm302.77-71h37.17V533.47H421.32Z"/><path class="cls-1" d="M1291.54,779.53v70.22h-75.38v70.64H1178l.21.18V885h-38.11V849.93h-37.9v-35H1026.6V779.68H988.74V744.83H912.89v34.88H875.14v35.18l.21-.19-38,.21V779.68H723.77V709.23H685.91V673.84h75.72V603.39h38v35.23h37.86v35.57H800.09v69.87h37.48V709H913V673.83h38.25v35h75V673.7H988.5V603.8H950.81v35H913V603.56H875.18V568.17h151.6v35.22h75.71l-.24,70.42h-37.19V779.29h37.36c0-5.92,0-11.52,0-17.12q-.18-44.26-.36-88.52l38.29.19v35.62h37.34v35.08h-36.92v34.74h75.35v-70h37.79l-.22-.18v70.66h38Z"/><path class="cls-1" d="M231.67,814.89V779.81h38.06V744.26l-.2.2h38.05v-35.4l-.2.18h75.9v-35.4l-.19.18h76.05v70.52h37.18V815H420.94v35.14l.2-.18-38,.18q0-35.31,0-70.61h37.53V744.8H383.27v34.89h-75.4V815h37.56v35.08h-37.5v35.06h37.5q-.09,17.69-.19,35.39l.19-.18h-75.9l.22.18V885.51H194.42V814.72h37.43v34.92h37.31V814.89Z"/><path class="cls-1" d="M269.29,5.17V250.91H5.21V5.17ZM137.13,41.54c-28.6,0-57.21.13-85.81-.11-5.63,0-7.21,1.49-7.19,6.71q.28,79.85,0,159.7c0,5.24,1.6,6.71,7.2,6.69q85.82-.25,171.64,0c5.62,0,7.21-1.49,7.19-6.7q-.28-79.86,0-159.71c0-5.23-1.6-6.74-7.21-6.69C194.35,41.67,165.74,41.54,137.13,41.54Z"/><path class="cls-1" d="M1140.76,5h264.07V250.73H1140.76Zm131.57,209.43c28.84,0,57.67-.11,86.5.09,5.23,0,6.94-1.23,6.92-6.31q-.29-80.18,0-160.34c0-4.86-1.33-6.46-6.79-6.44q-86.15.27-172.31,0c-5.23,0-6.94,1.24-6.92,6.32q.29,80.16,0,160.33c0,4.87,1.33,6.49,6.79,6.45C1215.12,214.3,1243.73,214.43,1272.33,214.43Z"/><path class="cls-1" d="M5.15,1061.69H269.26v245.72H5.15ZM230,1185.29c0-26.83-.14-53.66.12-80.48.05-5.21-1.56-6.73-7.19-6.72q-85.82.27-171.63,0c-5.6,0-7.23,1.44-7.21,6.68q.28,79.86,0,159.71c0,5.2,1.55,6.73,7.18,6.71q85.82-.27,171.64,0c5.59,0,7.27-1.44,7.21-6.69C229.9,1238.1,230,1211.7,230,1185.29Z"/><path class="cls-1" d="M458.8,40h37.81v-35h37.71V39.56h75.83V5.19H761.63V74.87h37.73V5.11h37.71V40.05h38.29l-.21-.19v70.19H837.63v35.43H799.47l.2.2V110.79h-38v34.89l.2-.2H724.08V75.19H686.2V40.37H648.29V75H458.8l.19.2V39.84Z"/><path class="cls-1" d="M1367.44,638.59h-37.77V603.66H1292V568.15h-38.27l.2.2V533.46h-38.05v34.89l.19-.18-38,.17V462.51h38.29v35h37.09v-70H1178q.1-17.7.19-35.4l-.19.18h37.49v-35.4H1178l.19.18V321.61l-.19.2,75.88,0-.2-.19v70.3h37.75V533.16h38.15l-.2-.19v35.15h75.42v35h-37.58v35.61Z"/><path class="cls-1" d="M988.74,216.15h37.71v70.44h38.19l-.19-.2V357H1178.2l-.19-.18v35.4l.19-.18h-37.86v35.4h-38.25v-35h-75.52v34.42H988.93V216Z"/><path class="cls-1" d="M837.52,392H762.21V216.15h37.46l-.2-.2v35.4h38l-.19-.18v34.89h38V251.17l-.2.2h38.05l-.2-.2v35.62h37.54v35.06H875.18V357l.2-.18-37.83,0V322.18H799.88v34.43h37.84q-.21,17.82-.39,35.63Z"/><path class="cls-1" d="M534.7,321.6H497v35.22H458.8l.19.2V321.44H383.28V216l-.19.2h37.73v70H458.9v-105h37.58v70.23H534.7l-.2-.2V321.8Z"/><path class="cls-1" d="M610.69,251.55V181.14H535.1V110.76H685.43v34.65h-37v106H610.47Z"/><path class="cls-1" d="M1367.27,1131.92h37.49v175.64h-37.08v-70.19h-76.12l.2.2V1131.9h37.85l-.19-.18v70.11h38v-70.11Z"/><path class="cls-1" d="M1215.84,1272.61v34.87h-189v-70.11l-.2.2h38.22v-35h37.61v35.08h38.1v35.13h75.53Z"/><path class="cls-1" d="M1253.89,321.83v-34.9h113.4v69.88h37.42V462.18h-37.15V392.37h-37.91V357.08H1292V321.64h-38.27Z"/><path class="cls-1" d="M458.8,75l0,35.41.2-.19H383.37V145.2H307.83V40.42h37.38V74.85H382.9V40h38.24l-.2-.2v35.4H459Z"/><path class="cls-1" d="M307.6,497.91v-35.1H231.89V427.28l-.21.18h38.05v-35.4l-.2.18h38.24v35.22H459l-.19-.18v35.53H345.24v35.1l.19-.19H307.38Z"/><path class="cls-1" d="M80.67,884.9H42.86v140.77H5.07V815.15H42.28v34.64h38.2v35.32Z"/><path class="cls-1" d="M686.11,462.7V427.83H799.34v70.09h38.18l-.19-.2v34.82H761.56V497.72H723.68V462.5H685.91Z"/><path class="cls-1" d="M80.43,462.48H5.2v-34.9H42.64V392.07l-.2.19h37.8V322.07h37.7v34.8h37.77V392H118.45V427H80.23v35.63Z"/><path class="cls-1" d="M118.15,920.6h37.68v35.23H194l-.2-.19v70.07h-113v-34.5h37.59v-70.8Z"/><path class="cls-1" d="M383.28,1167.14V1132H345.74V1096.9h37.32v-35.17h37.69v35h76.11l-.21-.18v35.4l.19-.18h-75.9v35.41l.2-.18H383.09Z"/><path class="cls-1" d="M231.89,533.13V497.91H307.6l-.22-.19V603.39h-75.7l.19.18v-35.4l-.19.18h37.5V533h-37.5Z"/><path class="cls-1" d="M875.36,40.05V5.16h150.9V74.82H989.07v-35H875.15Z"/><path class="cls-1" d="M1329.59,885.38V815h37.73V779.92h37.4V885.19h-75.33Z"/><path class="cls-1" d="M269.75,357V321.63l-.2.19h37.7V216.15h38.17l-.19-.2V356.84H269.53Z"/><path class="cls-1" d="M117.91,498.17h75.68v35h38.3l-.21-.18v35.4l.19-.18H118.12l.19.2L118.1,498S117.91,498.17,117.91,498.17Z"/><path class="cls-1" d="M913.23,427.26H837.52V392l-.19.2h38v-35.4l-.2.18h75.33v35.36H913v35.08Z"/><path class="cls-1" d="M950.92,110.49h37.72v35.08h37.7v35h-37.6v35.58l.19-.2h-38l.21.18,0-105.83Z"/><path class="cls-1" d="M1064.64,286.59V146.08h37.64V286.57l.21-.18h-38Z"/><path class="cls-1" d="M837.52,497.92v-35.1h75.71V427.26l-.2.2h37.42v70.26H837.33Z"/><path class="cls-1" d="M307.55,1026H232.31v-34.9h37.43V955.61l-.21.18h75.9l-.21-.18v35.08H307.35v35.53Z"/><path class="cls-1" d="M1291.56,1237.37v70.05H1254v-34.81h-38.19l.21.18v-35.22h75.71Z"/><path class="cls-1" d="M799.67,216.15q-.1-17.6-.21-35.19s-.19.21-.19.21l76.09-.23-.21-.19,0,70.62.2-.2h-38l.19.18V216h-38Z"/><path class="cls-1" d="M837.33,1131.7v105.69H799.45l.22.18V1131.72l-.2.18h38Z"/><path class="cls-1" d="M80.28,744.25v34.89H5.08V709.49H42.24v35H80.49Z"/><path class="cls-1" d="M1215.86,638.81h75.29v70.25h-37.46l.22.18V673.7h-37.86V638.61Z"/><path class="cls-1" d="M194,955.83V920.57h75.75l-.22-.18v35.4l.21-.18-75.94,0Z"/><path class="cls-1" d="M1102.28,286.57H1178v35.24l.2-.2h-75.71V286.39Z"/><path class="cls-1" d="M723.58,181.15v69.66H686.42V181.15Z"/><path class="cls-1" d="M572.36,251.37l38.32.17-.21-.17V321.6H572.36l.19.2V251.17Z"/><path class="cls-1" d="M1329.59,533.16V498.29h75.15V533h-75.35Z"/><path class="cls-1" d="M80.5,568.19H5.2V533.48H80.29v34.89Z"/><path class="cls-1" d="M1367.23,638.78h37.48V708.7h-37.27V638.59Z"/><path class="cls-1" d="M1215.84,603.39q0,17.72,0,35.42l.19-.2-38,.18q0-17.68,0-35.39l38,.17Z"/><path class="cls-1" d="M913.23,251.37V216.13H951.1l-.21-.18v35.22H913Z"/><path class="cls-1" d="M1253.71,568.15v35.24h-37.87l.21.18v-35.4l-.19.18h38.05Z"/><path class="cls-1" d="M534.7,251.37V216.51h37.66v34.86l.19-.2h-38Z"/><path class="cls-1" d="M1291.74,779.72V744.86H1329v34.67h-37.5Z"/><path class="cls-1" d="M5,321.33V287H42.05v34.36Z"/><path class="cls-1" d="M118.35,920.41H80.66v-35.5l-.18.2h37.66c0,12.26,0,23.88,0,35.5Z"/><path class="cls-1" d="M345.43,216.15V181.29h37.66v34.86l.19-.2h-38Z"/><path class="cls-1" d="M80.23,462.67h37.69v35.49s.19-.2.18-.2H80.43V462.48Z"/><path class="cls-1" d="M269.76,321.63H232.3v-34.7h37.26v34.89Z"/><path class="cls-1" d="M383.3,955.61H345.22l.21.18v-35.4l-.19.18h38l-.19-.18v35.4Z"/><path class="cls-1" d="M875.36,180.94V146.08h37.29v34.67h-37.5Z"/><path class="cls-1" d="M686.37,321.26V286.81h37v34.45Z"/><path class="cls-1" d="M307.35,1026.22h37.46v34.71H307.55V1026Z"/><path class="cls-1" d="M799.47,145.48q-.09,17.85-.2,35.68a1.8,1.8,0,0,0,.19-.2H761.82V145.48l-.2.2h38Z"/><path class="cls-1" d="M572.36,321.6v34.85H534.7V321.6l-.2.2h38Z"/><path class="cls-1" d="M458.76,110.45h37.46v34.7H459V110.26Z"/><path class="cls-1" d="M1367.27,1096.48v35.44l.2-.2h-38l.19.18v-35.22h37.86Z"/><path class="cls-1" d="M951.12,110.3H913.66V75.59h37.25c0,11.67,0,23.28,0,34.9Z"/><path class="cls-1" d="M1102.05,40.38V74.81h-37V40.38Z"/><path class="cls-1" d="M231.89,427.28H194.43v-35h37.44l-.19-.2v35.4Z"/><path class="cls-1" d="M648.24,392.27V357.42h37.29v34.66H648Z"/><path class="cls-1" d="M458.8,356.82v35.44l.19-.2H421.55V357H459Z"/><path class="cls-1" d="M913.25,1202.17H875.78v-35h37.47L913,1167v35.4Z"/><path class="cls-1" d="M231.87,392.26V357h37.87l-.21-.18v35.4l.2-.18H231.68Z"/><path class="cls-1" d="M42.64,392.07H5.18v-34.7H42.44v34.89Z"/><path class="cls-1" d="M421.14,40V5.18H458.8V40l.19-.2H420.94Z"/><path class="cls-1" d="M875,1273.18v34.38H838v-34.38Z"/><path class="cls-1" d="M913.64,1273h37v34.4h-37Z"/><path class="cls-1" d="M723.77,814.73H837.52v70.1H799.73V850.45H762v34.47H648v35.64l.21-.19H610.46V885.44H572.78V849.91H534.52l.2.19V815h37.64V779.51h75.51v70.13h75.9Z"/><path class="cls-1" d="M686.1,709.06v35.08H572.54v35.54H535.08V709.06Z"/><path class="cls-1" d="M913.21,1026.27V991.4h75.15v34.68H913Z"/><path class="cls-1" d="M534.52,849.91V920h-37.3V850.1h37.5Z"/><path class="cls-1" d="M534.46,638.78h75.3v34.7H534.67V638.59Z"/><path class="cls-1" d="M686.1,638.62V674H648.66V638.62Z"/><path class="cls-1" d="M724,603.4v35.39h-38V603.4Z"/><path class="cls-1" d="M761.81,603.57h-38v-35.4h38Z"/><path class="cls-1" d="M988.93,779.51V814.9H951.49V779.51Z"/><path class="cls-1" d="M875.14,814.89H912.6v34.7H875.35V814.7Z"/><path class="cls-1" d="M988.75,814.73h38v34.84h-38Z"/><path class="cls-1" d="M912.59,920.21H875.7V885.6h36.89Z"/><path class="cls-1" d="M648,920.56h37.46v34.7H648.23V920.37Z"/><path class="cls-1" d="M573,955.86h36.73v34.62H573Z"/><path class="cls-1" d="M875.41,1026.07H838v-34.7h37.26v34.89Z"/><path class="cls-1" d="M951.06,1096.72v-34.86h37.3v34.67h-37.5Z"/><ellipse class="cls-1" cx="364.26" cy="867.65" rx="26.9" ry="25.03"/><path class="cls-1" d="M1140.62,1061.66h37v34.53h-37Z"/><path class="cls-1" d="M1140.34,462.51v70.2h-75.56v35.63H1026.6V462.51Z"/><ellipse class="cls-1" cx="856.35" cy="621.09" rx="26.9" ry="25.03"/><path class="cls-1" d="M837.52,603.57h-38V568.73h38Z"/><ellipse class="cls-1" cx="1159.18" cy="444.98" rx="26.9" ry="25.03"/><path class="cls-1" d="M724,779.51V814.9H686.52V779.51Z"/><path class="cls-1" d="M1140.16,674V638.62h38V674Z"/><path class="cls-1" d="M1178.19,568.17v35.4H1102.3v-35.4Z"/><path class="cls-1" d="M875.19,638.62h38V674h-38Z"/><path class="cls-1" d="M193.4,180.52H80.76V75.69H193.4Z"/><path class="cls-1" d="M1216.46,75.45h112.67V180.29H1216.46Z"/><path class="cls-1" d="M193.6,1132.29v104.83H80.93V1132.29Z"/></g></g></svg>